<?xml version="1.0" encoding="utf-8"?>
<!-- Generator: Adobe Illustrator 23.1.0, SVG Export Plug-In . SVG Version: 6.00 Build 0)  -->
<svg version="1.1" id="Слой_8" xmlns="http://www.w3.org/2000/svg" xmlns:xlink="http://www.w3.org/1999/xlink" x="0px" y="0px"
	 viewBox="0 0 90 80" style="enable-background:new 0 0 90 80;" xml:space="preserve">
<style type="text/css">
	.st0{fill:#009ADA;}
	.st1{fill:#6C6C6C;}
	.st2{fill:#595757;}
</style>
<g>
	<g>
		<path class="st0" d="M38.98,21.75c4.33,2.96,12.88,9.06,17.51,11.91c0.42,0.26,0.46-0.1,0.43-0.24c-0.5-1.89-1.5-5.72-1.5-5.72
			s2.97,0.56,5.78,0c3.04-0.61,5.56-2.39,6.81-4.96c1.51-3.1,0.57-9.62-1.82-13.18c-0.15-0.22-0.42-0.38-0.36,0.04
			c0.23,1.77,0.49,6.67-2.43,8.7c-3.6,2.51-7.73,2.53-9.91,2.12c0,0-1.19-4.09-1.59-5.45c-0.04-0.15-0.18-0.6-0.52-0.43
			c-2.08,1.08-9.84,5.34-12.5,6.63C38.63,21.28,38.8,21.62,38.98,21.75z"/>
		<path class="st0" d="M47.46,30.65c-0.09-0.53-0.25-0.72-0.57-0.53c-0.31,0.19-4.12,2.01-4.52,2.11c-0.41,0.09-0.6,0-0.82-0.35
			c-0.05-0.16-2.02-2.2-5.66-5.25c-3.79-3.18-9.3-6.6-17.6-6.91c-7.87-0.3-16.21,3.27-16.84,3.46c-0.63,0.19-0.38,0.63,0.25,0.57
			c3.46-0.57,12.1-0.84,18.6,1.63c8.11,3.08,14.49,10.46,14.49,10.46s-6,2.99-6.38,3.14c-0.38,0.16-0.47,0.41-0.06,0.69
			c0.41,0.28,20.49,9.68,20.93,9.9c0.44,0.22,0.85,0.38,0.75-0.35C49.94,48.5,47.55,31.18,47.46,30.65z"/>
		<path class="st0" d="M81.38,79c-0.67-0.5-6.65-5.6-11.02-13.07c-4.32-7.37-3.98-16.59-3.94-17.05c0.04-0.46,0.34-0.42,0.54-0.25
			c0.21,0.17,5.57,3.44,6.08,3.81c0.5,0.38,0.96,0.13,0.71-0.29c-0.25-0.42-7-17.47-7.21-18.1c-0.21-0.63-0.38-0.63-0.71-0.5
			c-0.34,0.13-13.45,5.53-13.87,5.66c-0.42,0.13-0.63,0.5-0.04,0.71c0,0,5.53,3.23,5.91,3.44c0.38,0.21,0.38,0.5,0.38,0.5
			s-1.05,5.53,0,10.35c1.01,4.61,3.35,10.47,9.01,16.01c5.57,5.45,13.03,8.92,13.87,9.22S81.63,79.13,81.38,79z"/>
	</g>
	<g>
		<g>
			<path class="st1" d="M88.79,39.32c-0.29-0.29-14.33-11.48-14.66-11.73c-0.32-0.24-0.64-0.29-0.63,0.5c0,0.04,0,0.08,0,0.13
				c0,0-0.88,12.86-0.92,13.66c-0.04,0.8,0.13,0.75,0.42,0.71c0.29-0.04,5.24-0.96,5.24-0.96s1.63,3.69,1.89,4.57
				c0.25,0.88,2.09,6.2,0.71,11.14c-1.38,4.94-6.2,8.04-6.58,8.25c-0.38,0.21-0.17,0.71,0.25,0.5c4.65-0.8,8.97-2.43,11.52-5.82
				c2.56-3.39,2.3-9.05,1.26-13.16c-1.05-4.11-2.56-6.45-2.56-6.45s3.6-0.46,3.98-0.5C89.09,40.12,89.09,39.62,88.79,39.32z"/>
		</g>
		<g>
			<path class="st1" d="M39.14,48.5c-0.25-0.34-0.67-0.67-0.75-0.13c-0.08,0.54-1.13,7.83-1.13,7.83s-7.5-3.18-12.32-8.25
				c-9.64-10.14-8.3-19.27-8.3-19.86c0-0.59-0.34-0.92-0.67-0.34c-0.34,0.59-2.18,5.03-2.26,11.06c-0.12,8.8,3.44,14.25,8.3,19.44
				c4.86,5.2,13.95,8.25,13.95,8.25c-0.04,0.34-1.13,7.33-1.17,8.04c-0.04,0.71,0.04,1.05,0.38,0.92c0.34-0.13,19.94-7.83,20.4-8.04
				c0.46-0.21,0.54-0.5,0.21-0.88C55.44,66.18,39.4,48.83,39.14,48.5z"/>
		</g>
		<g>
			<path class="st1" d="M52.61,7.27c-4.15-2.51-8.36-4.03-14.27-3.96c-5.22,0.06-7.48,1.89-7.48,1.89s-4.21-4.02-4.59-4.34
				c-0.38-0.31-0.82-0.38-0.88,0.13c-0.06,0.5-1.82,13.32-1.82,13.32c-0.06,0.57-0.38,1.19,0.38,1.19c0.75,0,16.28,0.94,18.67,1.07
				c0,0,0.82-0.06,0.44-0.44c-0.38-0.38-4.27-4.21-5.28-4.84c0,0,3.02-1.89,7.6-1.89s10.68,1.95,16.03,5.72
				c0.25,0.19,0.82,0.25,0.44-0.19C61.48,14.5,56.76,9.78,52.61,7.27z"/>
		</g>
	</g>
</g>
<path class="st2" d="M74.09,28.33c2.01,1.6,12.65,10.07,14.12,11.29c-1.06,0.13-3.56,0.45-3.56,0.45l-0.94,0.12l0.51,0.8
	c0.01,0.02,1.47,2.31,2.48,6.28c1.02,4.01,1.26,9.44-1.15,12.65c-1.95,2.59-5.15,4.34-9.76,5.33c1.68-1.3,4.58-4.01,5.62-7.74
	c0.88-3.16,0.67-6.94-0.64-11.23l-0.07-0.24c-0.26-0.91-1.85-4.49-1.91-4.65l-0.19-0.43l-0.47,0.09c-1.68,0.31-4.11,0.76-4.95,0.91
	c0-0.01,0-0.03,0-0.04C73.22,41.16,74.02,29.35,74.09,28.33 M73.78,27.44c-0.17,0-0.29,0.17-0.29,0.66c0,0.04,0,0.08,0,0.13
	c0,0-0.88,12.86-0.92,13.66c-0.03,0.62,0.06,0.73,0.24,0.73c0.05,0,0.11-0.01,0.18-0.02c0.29-0.04,5.24-0.96,5.24-0.96
	s1.63,3.69,1.89,4.57s2.09,6.2,0.71,11.14c-1.38,4.94-6.2,8.04-6.58,8.25c-0.31,0.17-0.22,0.55,0.06,0.55
	c0.06,0,0.12-0.02,0.19-0.05c4.65-0.8,8.97-2.43,11.52-5.82s2.3-9.05,1.26-13.16c-1.05-4.11-2.56-6.45-2.56-6.45s3.6-0.46,3.98-0.5
	c0.38-0.04,0.38-0.54,0.08-0.84c-0.29-0.29-14.33-11.48-14.66-11.73C74.01,27.5,73.89,27.44,73.78,27.44L73.78,27.44z"/>
<path class="st2" d="M15.99,29.27c-0.05,3.67,0.96,11.16,8.51,19.1c4.85,5.11,12.21,8.26,12.52,8.39l0.72,0.3l0.11-0.77
	c0.01-0.06,0.76-5.26,1.04-7.18c0.98,1.09,5.08,5.54,12.3,13.35c2.1,2.27,3.79,4.1,4.1,4.44c-1.02,0.43-17.07,6.73-19.91,7.85
	c0-0.05,0-0.1,0.01-0.16c0.03-0.49,0.65-4.56,0.95-6.52c0.12-0.82,0.21-1.4,0.22-1.49l0.06-0.49l-0.46-0.16
	c-0.09-0.03-9.01-3.07-13.71-8.1c-4.97-5.31-8.25-10.58-8.13-19.02C14.37,34.56,15.35,31.05,15.99,29.27 M16.33,27.45
	c-0.11,0-0.23,0.09-0.35,0.31c-0.34,0.59-2.18,5.03-2.26,11.06c-0.12,8.8,3.44,14.25,8.3,19.44c4.86,5.2,13.95,8.25,13.95,8.25
	c-0.04,0.34-1.13,7.33-1.17,8.04c-0.04,0.61,0.02,0.95,0.25,0.95c0.04,0,0.08-0.01,0.12-0.03c0.34-0.13,19.94-7.83,20.4-8.04
	c0.46-0.21,0.54-0.5,0.21-0.88C55.44,66.18,39.4,48.83,39.14,48.5c-0.16-0.21-0.37-0.41-0.54-0.41c-0.1,0-0.18,0.08-0.22,0.29
	c-0.08,0.54-1.13,7.83-1.13,7.83s-7.5-3.18-12.32-8.25c-9.64-10.14-8.3-19.27-8.3-19.86C16.64,27.72,16.51,27.45,16.33,27.45
	L16.33,27.45z"/>
<g>
	<path class="st2" d="M25.96,1.37c0.47,0.42,2.9,2.73,4.5,4.26l0.38,0.36l0.41-0.33c0.02-0.02,2.16-1.69,7.11-1.75l0.39,0
		c5.02,0,9.08,1.16,13.56,3.87c2.18,1.32,4.55,3.29,6.32,4.89c-4.39-2.43-9.22-3.87-13.24-3.87c-4.71,0-7.79,1.9-7.92,1.98
		l-0.81,0.51l0.81,0.51c0.71,0.44,3.21,2.84,4.55,4.14c-1.22-0.07-3.47-0.2-5.98-0.35c-6.18-0.36-11.02-0.65-11.95-0.68
		c0.01-0.05,0.02-0.1,0.03-0.14c0.03-0.13,0.05-0.26,0.06-0.38C24.24,13.91,25.68,3.42,25.96,1.37 M25.74,0.62
		c-0.17,0-0.31,0.11-0.34,0.37c-0.06,0.5-1.82,13.32-1.82,13.32c-0.06,0.57-0.38,1.19,0.38,1.19c0.75,0,16.28,0.94,18.67,1.07
		c0,0,0.82-0.06,0.44-0.44c-0.38-0.38-4.27-4.21-5.28-4.84c0,0,3.02-1.89,7.6-1.89s10.68,1.95,16.03,5.72
		c0.11,0.08,0.29,0.14,0.41,0.14c0.15,0,0.23-0.09,0.03-0.33c-0.38-0.44-5.09-5.15-9.24-7.67c-4.05-2.46-8.17-3.96-13.87-3.96
		c-0.13,0-0.26,0-0.4,0c-5.22,0.06-7.48,1.89-7.48,1.89s-4.21-4.02-4.59-4.34C26.1,0.71,25.9,0.62,25.74,0.62L25.74,0.62z"/>
</g>
</svg>
