<?xml version="1.0" encoding="utf-8"?>
<!-- Generator: Adobe Illustrator 23.1.0, SVG Export Plug-In . SVG Version: 6.00 Build 0)  -->
<svg version="1.1" id="Слой_1__x28_копия_x29_"
	 xmlns="http://www.w3.org/2000/svg" xmlns:xlink="http://www.w3.org/1999/xlink" x="0px" y="0px" viewBox="0 0 296 140"
	 style="enable-background:new 0 0 296 140;" xml:space="preserve">
<style type="text/css">
	.st0{fill:#1D1D1B;}
</style>
<g>
	<g>
		<path class="st0" d="M43.4,114.6c-0.8,0-1.3-0.2-1.8-0.6c-0.4-0.4-0.8-1-1-1.7l-0.7-2.6c-0.3-1.1-0.9-1.6-1.8-1.6h-0.9v6.3h-2.5
			v-13.6h2.5v5.6h0.9c0.3,0,0.6-0.1,0.8-0.3c0.3-0.2,0.5-0.7,0.7-1.3l0.7-1.9c0.3-0.8,0.6-1.4,1-1.8s1-0.6,1.7-0.6
			c0.3,0,0.8,0.1,1.5,0.3v1.1c-0.5,0-0.9,0.1-1.2,0.3s-0.4,0.4-0.5,0.7l-0.7,1.9c-0.3,0.8-0.6,1.4-0.9,1.7c-0.3,0.3-0.7,0.6-1.1,0.7
			v0.1c0.5,0.1,0.9,0.3,1.3,0.7c0.4,0.3,0.7,1,0.9,1.8l0.7,2.6c0.1,0.3,0.2,0.5,0.5,0.7c0.2,0.2,0.6,0.3,1.2,0.3v1.1
			C44.3,114.5,43.8,114.6,43.4,114.6z"/>
		<path class="st0" d="M51.2,114.6c-1.1,0-2-0.2-2.8-0.7c-0.8-0.4-1.3-1.2-1.7-2.2c-0.4-1-0.6-2.4-0.6-4.2c0-1.8,0.2-3.2,0.6-4.2
			c0.4-1,1-1.8,1.7-2.2c0.8-0.4,1.7-0.7,2.8-0.7s2,0.2,2.8,0.7c0.8,0.4,1.3,1.2,1.7,2.2s0.6,2.4,0.6,4.2c0,1.8-0.2,3.2-0.6,4.2
			s-1,1.8-1.7,2.2C53.2,114.4,52.3,114.6,51.2,114.6z M51.2,113.1c0.5,0,0.9-0.2,1.3-0.5c0.4-0.3,0.7-0.9,1-1.7
			c0.3-0.8,0.4-1.9,0.4-3.4s-0.1-2.6-0.4-3.4c-0.3-0.8-0.6-1.4-1-1.7c-0.4-0.3-0.8-0.5-1.3-0.5c-0.5,0-0.9,0.2-1.3,0.5
			c-0.4,0.3-0.7,0.9-1,1.7c-0.3,0.8-0.4,1.9-0.4,3.4s0.1,2.6,0.4,3.4c0.3,0.8,0.6,1.4,1,1.7C50.3,112.9,50.7,113.1,51.2,113.1z"/>
		<path class="st0" d="M59.2,114.3v-13.6h2.5v5.9h4.5v-5.9h2.4v13.6h-2.4v-6h-4.5v6H59.2z"/>
		<path class="st0" d="M74.2,114.3v-11.9h-3.5v-1.8h9.5v1.8h-3.5v11.9H74.2z"/>
		<path class="st0" d="M85.5,114.6c-0.8,0-1.5-0.1-2.1-0.3c-0.6-0.2-1.1-0.7-1.4-1.3c-0.3-0.6-0.5-1.5-0.5-2.7c0-1.2,0.2-2,0.5-2.6
			c0.3-0.6,0.8-1,1.4-1.3c0.6-0.2,1.3-0.3,2.1-0.3c0.4,0,0.9,0,1.4,0.1s0.9,0.1,1.3,0.2V105c0-1.2-0.3-2-0.8-2.4s-1.3-0.6-2.2-0.6
			h-2.7V101c0.4-0.2,0.9-0.3,1.5-0.4s1.2-0.2,1.7-0.2c1.1,0,2,0.1,2.7,0.4s1.3,0.7,1.6,1.4s0.6,1.6,0.6,2.9v9.3h-2l-0.1-0.8h-0.1
			c-0.3,0.3-0.8,0.6-1.3,0.8S86.1,114.6,85.5,114.6z M86.3,112.9c0.3,0,0.7-0.1,1.1-0.2s0.7-0.2,0.8-0.4v-4.8h-1.9
			c-0.4,0-0.9,0.1-1.2,0.2s-0.7,0.4-0.9,0.8c-0.2,0.4-0.3,0.9-0.3,1.6c0,0.7,0.1,1.3,0.3,1.7s0.5,0.7,0.9,0.8
			C85.5,112.9,85.9,112.9,86.3,112.9z"/>
		<path class="st0" d="M102.8,114.6c-0.8,0-1.3-0.2-1.8-0.6c-0.4-0.4-0.8-1-0.9-1.7l-0.7-2.6c-0.3-1.1-0.9-1.6-1.8-1.6h-0.9v6.3
			h-2.4v-13.6h2.4v5.6h0.9c0.3,0,0.6-0.1,0.8-0.3c0.3-0.2,0.5-0.7,0.7-1.3l0.7-1.9c0.3-0.8,0.6-1.4,1-1.8s1-0.6,1.7-0.6
			c0.3,0,0.8,0.1,1.5,0.3v1.1c-0.6,0-0.9,0.1-1.2,0.3s-0.4,0.4-0.5,0.7l-0.7,1.9c-0.3,0.8-0.6,1.4-0.9,1.7c-0.3,0.3-0.7,0.6-1.1,0.7
			v0.1c0.5,0.1,0.9,0.3,1.3,0.7c0.4,0.3,0.7,1,0.9,1.8l0.7,2.6c0.1,0.3,0.2,0.5,0.5,0.7c0.2,0.2,0.6,0.3,1.2,0.3v1.1
			C103.8,114.5,103.3,114.6,102.8,114.6z"/>
		<path class="st0" d="M108.4,114.3v-11.9h-3.5v-1.8h9.5v1.8h-3.5v11.9H108.4z"/>
		<path class="st0" d="M120.8,114.6c-0.8,0-1.6,0-2.3-0.1s-1.4-0.2-2.1-0.4v-13.4h2.4v5.3c0.4-0.1,0.8-0.1,1.3-0.2s0.9-0.1,1.5-0.1
			c0.8,0,1.5,0.1,2.1,0.3c0.6,0.2,1.1,0.7,1.4,1.3s0.5,1.6,0.5,2.8c0,1.2-0.2,2.1-0.6,2.7c-0.4,0.6-0.9,1.1-1.6,1.3
			C122.8,114.5,121.9,114.6,120.8,114.6z M118.9,112.9h1.9c0.5,0,0.9-0.1,1.3-0.2c0.4-0.2,0.7-0.4,0.8-0.8s0.3-0.9,0.3-1.7
			s-0.1-1.3-0.3-1.7c-0.2-0.4-0.5-0.7-0.8-0.8c-0.4-0.2-0.8-0.2-1.3-0.2h-1.9V112.9z M127.7,114.3v-13.6h2.4v13.6H127.7z"/>
		<path class="st0" d="M140.5,114.3v-13.6h2.4v9.3h0.1l4.1-9.3h2.9v13.6h-2.4v-9.5h-0.1l-4.4,9.5
			C143.1,114.3,140.5,114.3,140.5,114.3z"/>
		<path class="st0" d="M169,114.6c-0.8,0-1.3-0.2-1.8-0.6c-0.4-0.4-0.8-1-0.9-1.7l-0.7-2.6c-0.3-1.1-0.9-1.6-1.8-1.6h-0.9v6.3h-2.4
			v-13.6h2.4v5.6h0.9c0.3,0,0.6-0.1,0.8-0.3c0.3-0.2,0.5-0.7,0.7-1.3l0.7-1.9c0.3-0.8,0.6-1.4,1-1.8s1-0.6,1.7-0.6
			c0.3,0,0.9,0.1,1.5,0.3v1.1c-0.6,0-0.9,0.1-1.2,0.3c-0.2,0.2-0.4,0.4-0.5,0.7l-0.7,1.9c-0.3,0.8-0.6,1.4-0.9,1.7
			c-0.3,0.3-0.6,0.6-1.1,0.7v0.1c0.5,0.1,0.9,0.3,1.3,0.7c0.4,0.3,0.7,1,0.9,1.8l0.7,2.6c0.1,0.3,0.2,0.5,0.5,0.7
			c0.2,0.2,0.6,0.3,1.2,0.3v1.1C169.9,114.5,169.4,114.6,169,114.6z"/>
		<path class="st0" d="M176.7,114.6c-1.1,0-2-0.2-2.8-0.7c-0.8-0.4-1.3-1.2-1.7-2.2c-0.4-1-0.6-2.4-0.6-4.2c0-1.8,0.2-3.2,0.6-4.2
			c0.4-1,1-1.8,1.7-2.2c0.8-0.4,1.7-0.7,2.8-0.7s2,0.2,2.8,0.7c0.8,0.4,1.3,1.2,1.7,2.2s0.6,2.4,0.6,4.2c0,1.8-0.2,3.2-0.6,4.2
			s-0.9,1.8-1.7,2.2C178.8,114.4,177.8,114.6,176.7,114.6z M176.7,113.1c0.4,0,0.9-0.2,1.3-0.5c0.4-0.3,0.7-0.9,0.9-1.7
			c0.3-0.8,0.4-1.9,0.4-3.4s-0.1-2.6-0.4-3.4c-0.3-0.8-0.6-1.4-0.9-1.7c-0.4-0.3-0.8-0.5-1.3-0.5c-0.4,0-0.9,0.2-1.3,0.5
			c-0.4,0.3-0.7,0.9-0.9,1.7c-0.3,0.8-0.4,1.9-0.4,3.4s0.1,2.6,0.4,3.4c0.3,0.8,0.6,1.4,0.9,1.7
			C175.9,112.9,176.3,113.1,176.7,113.1z"/>
		<path class="st0" d="M184.5,114.3l0.9-13.6h2.9l3.2,8.6h0.1l3.2-8.6h2.9l0.9,13.6h-2.3l-0.7-9.7h-0.1l-2.9,7.6h-2.2l-2.9-7.6h-0.1
			l-0.7,9.7C186.8,114.3,184.5,114.3,184.5,114.3z"/>
		<path class="st0" d="M202,114.3v-13.6h9.4v13.6h-2.4v-11.9h-4.5v11.9H202z"/>
		<path class="st0" d="M218.4,114.6c-0.8,0-1.5-0.1-2.1-0.3c-0.6-0.2-1.1-0.7-1.4-1.3c-0.4-0.6-0.5-1.5-0.5-2.7c0-1.2,0.2-2,0.5-2.6
			c0.3-0.6,0.8-1,1.4-1.3c0.6-0.2,1.3-0.3,2.1-0.3c0.4,0,0.9,0,1.4,0.1s0.9,0.1,1.4,0.2V105c0-1.2-0.3-2-0.8-2.4s-1.3-0.6-2.2-0.6
			h-2.7V101c0.4-0.2,0.9-0.3,1.5-0.4s1.2-0.2,1.7-0.2c1.1,0,2,0.1,2.7,0.4s1.3,0.7,1.6,1.4c0.4,0.7,0.6,1.6,0.6,2.9v9.3h-2l-0.1-0.8
			h-0.1c-0.4,0.3-0.8,0.6-1.3,0.8S219,114.6,218.4,114.6z M219.3,112.9c0.4,0,0.7-0.1,1.1-0.2s0.6-0.2,0.9-0.4v-4.8h-1.9
			c-0.4,0-0.9,0.1-1.2,0.2s-0.7,0.4-0.9,0.8c-0.2,0.4-0.3,0.9-0.3,1.6c0,0.7,0.1,1.3,0.3,1.7s0.5,0.7,0.9,0.8
			C218.4,112.9,218.8,112.9,219.3,112.9z"/>
		<path class="st0" d="M227.2,114.3v-13.6h2.4v5.9h4.5v-5.9h2.4v13.6h-2.4v-6h-4.5v6H227.2z"/>
		<path class="st0" d="M240.1,114.3v-13.6h2.4v9.3h0.1l4.1-9.3h2.9v13.6h-2.4v-9.5h-0.1l-4.4,9.5
			C242.7,114.3,240.1,114.3,240.1,114.3z"/>
		<path class="st0" d="M253.2,114.3v-13.6h2.4v9.3h0.1l4.1-9.3h2.9v13.6h-2.5v-9.5h-0.1l-4.4,9.5
			C255.8,114.3,253.2,114.3,253.2,114.3z"/>
	</g>
</g>
<g>
	<g>
		<g>
			<path class="st0" d="M43.7,34.7h-7.6c-0.6,0-1-0.5-1-1v-7.6c0-0.6,0.5-1,1-1h7.6c0.6,0,1,0.5,1,1v7.6
				C44.8,34.2,44.3,34.7,43.7,34.7z"/>
			<path class="st0" d="M91.3,56.1h-7.6c-0.6,0-1-0.5-1-1v-7.6c0-0.6,0.5-1,1-1h7.6c0.6,0,1,0.5,1,1V55
				C92.3,55.6,91.9,56.1,91.3,56.1z M91.3,88.3h-7.6c-0.6,0-1-0.5-1-1v-7.7c0-0.6,0.5-1,1-1h7.6c0.6,0,1,0.5,1,1v7.7
				C92.3,87.9,91.9,88.3,91.3,88.3z"/>
		</g>
	</g>
	<g>
		<path class="st0" d="M35.3,88.3V41.1h9.2v47.2H35.3z"/>
		<path class="st0" d="M61.1,42.2c2.3,0,4.2,0.8,5.6,2.3V25H76v63.3h-7.8v-3.5c-1.4,3-3.8,4.4-7.1,4.4h-1.4c-5.7,0-8.5-4.3-8.5-12.8
			V54.9c0-8.5,2.8-12.8,8.5-12.8H61.1z M66.8,78.1V53.4c0-0.5-0.1-1-0.4-1.4c-0.3-0.4-0.6-0.6-0.9-0.6h-3.8c-0.4,0-0.7,0.2-0.9,0.6
			c-0.3,0.4-0.4,0.8-0.4,1.4v24.7c0,0.5,0.1,1,0.4,1.4c0.3,0.4,0.6,0.6,0.9,0.6h3.8c0.4,0,0.7-0.2,0.9-0.6
			C66.6,79,66.8,78.6,66.8,78.1z"/>
		<path class="st0" d="M116.7,78.1v-9.7h9.2v8.1c0,8.5-2.8,12.8-8.5,12.8h-8.7c-5.7,0-8.5-4.3-8.5-12.8V37.8
			c0-8.5,2.8-12.8,8.5-12.8h8.7c5.7,0,8.5,4.3,8.5,12.8v5.9h-9.2v-7.5c0-0.5-0.1-1-0.4-1.4c-0.3-0.4-0.6-0.6-0.9-0.6H111
			c-0.4,0-0.7,0.2-0.9,0.6c-0.3,0.4-0.4,0.8-0.4,1.4v41.9c0,0.5,0.1,1,0.4,1.4c0.3,0.4,0.6,0.6,0.9,0.6h4.3c0.4,0,0.7-0.2,0.9-0.6
			C116.5,79,116.7,78.6,116.7,78.1z"/>
		<path class="st0" d="M141.2,63.7v24.6h-9.6V25h17.1c5.7,0,8.5,4.3,8.5,12.8v9.1c0,5.2-1.3,8.4-3.9,9.9c2.3,1.2,3.4,3.8,3.4,7.9
			v23.7h-9.6V67.9c0-1.3-0.4-4.1-1.3-4.1H141.2z M141.2,34.1v20.1h5.1c0.4,0,0.7-0.2,0.9-0.6c0.3-0.4,0.4-0.8,0.4-1.4V36.1
			c0-0.5-0.1-1-0.4-1.4c-0.3-0.4-0.6-0.6-0.9-0.6H141.2z"/>
		<path class="st0" d="M173,88.3h-9.6V37.8c0-8.5,2.8-12.8,8.5-12.8h5.1c3.3,0,5.7,1.5,7.2,4.6c1.3-3.1,3.7-4.6,7.2-4.6h5.1
			c5.7,0,8.5,4.3,8.5,12.8v50.5h-9.6V36.6c0-0.5-0.1-1-0.4-1.4c-0.3-0.4-0.6-0.6-0.9-0.6h-3.7c-0.4,0-0.7,0.2-0.9,0.6
			c-0.3,0.4-0.4,0.8-0.4,1.4v51.7h-9.6V36.6c0-0.5-0.1-1-0.4-1.4c-0.3-0.4-0.6-0.6-0.9-0.6h-3.7c-0.4,0-0.7,0.2-0.9,0.6
			c-0.3,0.4-0.4,0.8-0.4,1.4V88.3z"/>
	</g>
</g>
</svg>
