<?xml version="1.0" encoding="utf-8"?>
<!-- Generator: Adobe Illustrator 23.1.0, SVG Export Plug-In . SVG Version: 6.00 Build 0)  -->
<svg version="1.1" id="Слой_1" xmlns="http://www.w3.org/2000/svg" xmlns:xlink="http://www.w3.org/1999/xlink" x="0px" y="0px"
	 viewBox="0 0 90 80" style="enable-background:new 0 0 90 80;" xml:space="preserve">
<style type="text/css">
	.st0{display:none;}
	.st1{display:inline;}
	.st2{fill:#1D1D1B;}
	.st3{fill:#FFFFFF;}
	.st4{fill:#009ADA;}
	.st5{fill:#6C6C6C;}
	.st6{display:inline;fill:#595757;}
	.st7{fill:#595757;}
</style>
<g id="Слой_1__x28_копия_x29_" class="st0">
	<g class="st1">
		<g>
			<path class="st2" d="M45,33.93h-9.56v-9.56H45V33.93z M45,88.34h-9.56v-44.8H45V88.34z"/>
			<path class="st2" d="M77,88.34h-8.95l-0.61-2.58c-1.81,1.72-3.95,2.58-6.42,2.58c-3.16,0-5.61-1.41-7.36-4.22
				c-1.5-2.37-2.25-5.23-2.25-8.57V56.33c0-3.25,0.75-6.09,2.25-8.53c1.78-2.84,4.19-4.26,7.22-4.26c2.53,0,4.72,0.86,6.56,2.58
				V24.38H77V88.34z M67.44,78.77V53.11c0-0.85-0.33-1.59-0.99-2.23c-0.66-0.64-1.42-0.96-2.27-0.96s-1.6,0.32-2.24,0.96
				c-0.65,0.64-0.97,1.39-0.97,2.23v25.66c0,0.85,0.32,1.59,0.97,2.23s1.39,0.96,2.24,0.96c0.88,0,1.64-0.31,2.29-0.94
				C67.12,80.4,67.44,79.65,67.44,78.77z"/>
			<path class="st2" d="M92.98,56.33h-9.56v-9.56h9.56V56.33z M92.98,88.34h-9.56v-9.61h9.56V88.34z"/>
			<path class="st2" d="M124.99,75.54c0,3.53-1.25,6.54-3.75,9.04s-5.51,3.75-9.04,3.75c-3.56,0-6.58-1.24-9.07-3.73
				s-3.73-5.51-3.73-9.07V37.17c0-3.56,1.24-6.58,3.73-9.07s5.51-3.73,9.07-3.73c3.47,0,6.47,1.27,9,3.8s3.8,5.53,3.8,9v3.19h-9.56
				c0-0.44,0.03-1.12,0.09-2.04c0.06-0.92,0.09-1.63,0.09-2.13c0-3.62-1.15-5.44-3.44-5.44c-0.88,0-1.64,0.31-2.27,0.94
				s-0.94,1.38-0.94,2.25v44.84c0,2.13,1.07,3.19,3.21,3.19c2.3,0,3.44-1.8,3.44-5.42c0-0.6-0.03-1.37-0.09-2.33
				s-0.09-1.58-0.09-1.86H125v3.18H124.99z"/>
			<path class="st2" d="M156.99,88.34h-9.56V62.75c0-0.84-0.33-1.58-0.99-2.23c-0.66-0.64-1.42-0.96-2.27-0.96h-3.21v28.77h-9.56
				V24.38h12.79c3.47,0,6.47,1.27,9,3.8s3.8,5.53,3.8,9v9.61c0,3.78-1.44,6.97-4.31,9.56c2.87,2.59,4.31,5.79,4.31,9.61
				L156.99,88.34L156.99,88.34z M147.43,50V33.94c0-0.84-0.33-1.59-0.99-2.23s-1.42-0.96-2.27-0.96h-3.21v22.44h3.21
				c0.85,0,1.6-0.32,2.27-0.96C147.1,51.59,147.43,50.85,147.43,50z"/>
			<path class="st2" d="M205.02,88.34h-9.56v-54.4c0-0.84-0.32-1.59-0.97-2.23s-1.39-0.96-2.24-0.96c-0.88,0-1.64,0.31-2.29,0.94
				c-0.65,0.63-0.97,1.38-0.97,2.25v54.4h-9.56v-54.4c0-0.84-0.33-1.59-0.99-2.23s-1.42-0.96-2.27-0.96c-0.88,0-1.64,0.31-2.27,0.94
				c-0.63,0.63-0.94,1.38-0.94,2.25v54.4h-9.56V37.17c0-3.53,1.16-6.54,3.47-9.04s5.22-3.75,8.72-3.75c3.44,0,6.31,1.14,8.62,3.42
				c2.31-2.28,5.19-3.42,8.62-3.42c3.47,0,6.36,1.26,8.69,3.77c2.33,2.52,3.49,5.52,3.49,9.02v51.17H205.02z"/>
		</g>
		<g>
			<path class="st2" d="M43.41,114.6c-0.75,0-1.34-0.2-1.77-0.6c-0.44-0.4-0.75-0.97-0.95-1.72L40,109.69
				c-0.29-1.09-0.89-1.64-1.8-1.64h-0.93v6.27h-2.45V100.7h2.45v5.59h0.93c0.29,0,0.56-0.12,0.82-0.35
				c0.25-0.24,0.49-0.66,0.71-1.28l0.68-1.91c0.29-0.8,0.63-1.39,1.02-1.76s0.96-0.56,1.7-0.56c0.34,0,0.85,0.09,1.5,0.27v1.09
				c-0.55,0-0.93,0.09-1.16,0.27s-0.39,0.41-0.48,0.68l-0.68,1.91c-0.29,0.82-0.58,1.4-0.87,1.73c-0.29,0.34-0.65,0.56-1.06,0.67
				v0.11c0.49,0.11,0.92,0.34,1.29,0.68c0.37,0.35,0.68,0.96,0.91,1.85l0.68,2.59c0.07,0.27,0.23,0.5,0.46,0.68
				c0.24,0.18,0.63,0.27,1.17,0.27v1.09C44.33,114.51,43.83,114.6,43.41,114.6z"/>
			<path class="st2" d="M51.18,114.6c-1.09,0-2.01-0.22-2.75-0.67c-0.75-0.44-1.31-1.19-1.7-2.22c-0.39-1.04-0.59-2.44-0.59-4.2
				c0-1.78,0.19-3.19,0.59-4.21c0.39-1.03,0.96-1.76,1.7-2.21c0.75-0.45,1.66-0.67,2.75-0.67s2.01,0.22,2.77,0.67
				c0.75,0.45,1.32,1.18,1.7,2.21s0.57,2.43,0.57,4.21c0,1.76-0.19,3.16-0.57,4.2s-0.95,1.78-1.7,2.22
				C53.19,114.38,52.27,114.6,51.18,114.6z M51.18,113.1c0.45,0,0.88-0.16,1.27-0.49c0.39-0.33,0.71-0.9,0.95-1.7
				c0.25-0.81,0.37-1.94,0.37-3.39s-0.12-2.59-0.37-3.39c-0.25-0.81-0.56-1.38-0.95-1.7c-0.39-0.33-0.81-0.49-1.27-0.49
				c-0.45,0-0.88,0.16-1.27,0.49c-0.39,0.33-0.71,0.9-0.95,1.7c-0.25,0.81-0.37,1.94-0.37,3.39s0.12,2.59,0.37,3.39
				c0.25,0.81,0.56,1.38,0.95,1.7C50.3,112.94,50.73,113.1,51.18,113.1z"/>
			<path class="st2" d="M59.22,114.33V100.7h2.45v5.86h4.5v-5.86h2.45v13.63h-2.45v-6h-4.5v6
				C61.67,114.33,59.22,114.33,59.22,114.33z"/>
			<path class="st2" d="M74.22,114.33v-11.86h-3.54v-1.77h9.54v1.77h-3.54v11.86H74.22z"/>
			<path class="st2" d="M85.53,114.6c-0.82,0-1.53-0.12-2.14-0.35c-0.61-0.24-1.09-0.67-1.43-1.29c-0.35-0.63-0.52-1.53-0.52-2.71
				c0-1.15,0.17-2.02,0.52-2.63c0.34-0.61,0.82-1.03,1.43-1.25c0.61-0.23,1.32-0.34,2.14-0.34c0.42,0,0.88,0.03,1.38,0.08
				s0.95,0.12,1.35,0.19v-1.23c0-1.24-0.26-2.04-0.78-2.43s-1.26-0.57-2.22-0.57h-2.73v-1.09c0.42-0.15,0.93-0.27,1.54-0.38
				s1.19-0.16,1.73-0.16c1.09,0,2,0.12,2.73,0.37s1.27,0.7,1.64,1.36s0.55,1.63,0.55,2.9v9.27h-2.04l-0.14-0.82H88.4
				c-0.35,0.35-0.77,0.61-1.28,0.8S86.08,114.6,85.53,114.6z M86.35,112.97c0.35,0,0.7-0.06,1.06-0.18s0.65-0.24,0.85-0.37v-4.77
				h-1.91c-0.45,0-0.87,0.07-1.24,0.22s-0.67,0.4-0.89,0.78c-0.22,0.37-0.33,0.9-0.33,1.6c0,0.73,0.11,1.29,0.33,1.68
				s0.51,0.66,0.89,0.82C85.48,112.89,85.9,112.97,86.35,112.97z"/>
			<path class="st2" d="M102.85,114.6c-0.75,0-1.34-0.2-1.77-0.6c-0.44-0.4-0.75-0.97-0.95-1.72l-0.68-2.59
				c-0.29-1.09-0.89-1.64-1.8-1.64h-0.93v6.27h-2.45V100.7h2.45v5.59h0.93c0.29,0,0.56-0.12,0.82-0.35
				c0.25-0.24,0.49-0.66,0.71-1.28l0.68-1.91c0.29-0.8,0.63-1.39,1.02-1.76s0.96-0.56,1.7-0.56c0.34,0,0.85,0.09,1.5,0.27v1.09
				c-0.55,0-0.93,0.09-1.16,0.27s-0.39,0.41-0.48,0.68l-0.68,1.91c-0.29,0.82-0.58,1.4-0.87,1.73c-0.29,0.34-0.65,0.56-1.06,0.67
				v0.11c0.49,0.11,0.92,0.34,1.29,0.68c0.37,0.35,0.68,0.96,0.91,1.85l0.68,2.59c0.07,0.27,0.23,0.5,0.46,0.68
				c0.24,0.18,0.63,0.27,1.17,0.27v1.09C103.77,114.51,103.27,114.6,102.85,114.6z"/>
			<path class="st2" d="M108.44,114.33v-11.86h-3.54v-1.77h9.54v1.77h-3.54v11.86H108.44z"/>
			<path class="st2" d="M120.84,114.6c-0.82,0-1.58-0.04-2.28-0.12s-1.4-0.22-2.09-0.42V100.7h2.45v5.32
				c0.42-0.07,0.84-0.14,1.27-0.19s0.91-0.08,1.46-0.08c0.82,0,1.53,0.12,2.14,0.35c0.61,0.24,1.09,0.68,1.43,1.32
				s0.52,1.59,0.52,2.82c0,1.18-0.18,2.09-0.55,2.71c-0.36,0.63-0.91,1.06-1.64,1.29C122.84,114.48,121.93,114.6,120.84,114.6z
				 M118.93,112.97h1.91c0.51,0,0.94-0.08,1.31-0.23c0.36-0.15,0.65-0.43,0.85-0.82s0.3-0.95,0.3-1.68s-0.1-1.29-0.3-1.68
				c-0.2-0.39-0.48-0.66-0.85-0.82c-0.36-0.15-0.8-0.23-1.31-0.23h-1.91V112.97z M127.66,114.33V100.7h2.45v13.63
				C130.11,114.33,127.66,114.33,127.66,114.33z"/>
			<path class="st2" d="M140.47,114.33V100.7h2.45v9.27h0.14l4.09-9.27h2.86v13.63h-2.45v-9.54h-0.14l-4.36,9.54
				C143.06,114.33,140.47,114.33,140.47,114.33z"/>
			<path class="st2" d="M168.97,114.6c-0.75,0-1.34-0.2-1.77-0.6c-0.44-0.4-0.75-0.97-0.95-1.72l-0.68-2.59
				c-0.29-1.09-0.89-1.64-1.8-1.64h-0.93v6.27h-2.45V100.7h2.45v5.59h0.93c0.29,0,0.56-0.12,0.82-0.35
				c0.25-0.24,0.49-0.66,0.71-1.28l0.68-1.91c0.29-0.8,0.63-1.39,1.02-1.76s0.96-0.56,1.7-0.56c0.34,0,0.85,0.09,1.5,0.27v1.09
				c-0.55,0-0.93,0.09-1.16,0.27c-0.23,0.18-0.39,0.41-0.48,0.68l-0.68,1.91c-0.29,0.82-0.58,1.4-0.87,1.73
				c-0.29,0.34-0.65,0.56-1.06,0.67v0.11c0.49,0.11,0.92,0.34,1.29,0.68c0.37,0.35,0.68,0.96,0.91,1.85l0.68,2.59
				c0.07,0.27,0.23,0.5,0.46,0.68c0.24,0.18,0.63,0.27,1.17,0.27v1.09C169.88,114.51,169.38,114.6,168.97,114.6z"/>
			<path class="st2" d="M176.74,114.6c-1.09,0-2.01-0.22-2.75-0.67c-0.75-0.44-1.31-1.19-1.7-2.22c-0.39-1.04-0.59-2.44-0.59-4.2
				c0-1.78,0.19-3.19,0.59-4.21c0.39-1.03,0.96-1.76,1.7-2.21c0.75-0.45,1.66-0.67,2.75-0.67s2.01,0.22,2.77,0.67
				c0.75,0.45,1.32,1.18,1.7,2.21s0.57,2.43,0.57,4.21c0,1.76-0.19,3.16-0.57,4.2s-0.95,1.78-1.7,2.22
				C178.75,114.38,177.83,114.6,176.74,114.6z M176.74,113.1c0.45,0,0.88-0.16,1.27-0.49c0.39-0.33,0.71-0.9,0.95-1.7
				c0.25-0.81,0.37-1.94,0.37-3.39s-0.12-2.59-0.37-3.39c-0.25-0.81-0.56-1.38-0.95-1.7c-0.39-0.33-0.81-0.49-1.27-0.49
				c-0.45,0-0.88,0.16-1.27,0.49c-0.39,0.33-0.71,0.9-0.95,1.7c-0.25,0.81-0.37,1.94-0.37,3.39s0.12,2.59,0.37,3.39
				c0.25,0.81,0.56,1.38,0.95,1.7C175.86,112.94,176.28,113.1,176.74,113.1z"/>
			<path class="st2" d="M184.51,114.33l0.95-13.63h2.86l3.22,8.59h0.11l3.22-8.59h2.86l0.95,13.63h-2.32l-0.68-9.68h-0.14
				l-2.86,7.63h-2.18l-2.86-7.63h-0.14l-0.68,9.68C186.82,114.33,184.51,114.33,184.51,114.33z"/>
			<path class="st2" d="M201.96,114.33V100.7h9.41v13.63h-2.45v-11.86h-4.5v11.86C204.42,114.33,201.96,114.33,201.96,114.33z"/>
			<path class="st2" d="M218.45,114.6c-0.82,0-1.53-0.12-2.14-0.35c-0.61-0.24-1.09-0.67-1.43-1.29c-0.35-0.63-0.52-1.53-0.52-2.71
				c0-1.15,0.17-2.02,0.52-2.63c0.34-0.61,0.82-1.03,1.43-1.25c0.61-0.23,1.32-0.34,2.14-0.34c0.42,0,0.88,0.03,1.38,0.08
				s0.95,0.12,1.35,0.19v-1.23c0-1.24-0.26-2.04-0.78-2.43s-1.26-0.57-2.22-0.57h-2.73v-1.09c0.42-0.15,0.93-0.27,1.54-0.38
				s1.19-0.16,1.73-0.16c1.09,0,2,0.12,2.73,0.37s1.27,0.7,1.64,1.36c0.36,0.66,0.55,1.63,0.55,2.9v9.27h-2.04l-0.14-0.82h-0.14
				c-0.35,0.35-0.77,0.61-1.28,0.8S219,114.6,218.45,114.6z M219.27,112.97c0.35,0,0.7-0.06,1.06-0.18s0.65-0.24,0.85-0.37v-4.77
				h-1.91c-0.45,0-0.87,0.07-1.24,0.22s-0.67,0.4-0.89,0.78c-0.22,0.37-0.33,0.9-0.33,1.6c0,0.73,0.11,1.29,0.33,1.68
				s0.51,0.66,0.89,0.82C218.4,112.89,218.81,112.97,219.27,112.97z"/>
			<path class="st2" d="M227.18,114.33V100.7h2.45v5.86h4.5v-5.86h2.45v13.63h-2.45v-6h-4.5v6
				C229.63,114.33,227.18,114.33,227.18,114.33z"/>
			<path class="st2" d="M240.13,114.33V100.7h2.45v9.27h0.14l4.09-9.27h2.86v13.63h-2.45v-9.54h-0.14l-4.36,9.54
				C242.72,114.33,240.13,114.33,240.13,114.33z"/>
			<path class="st2" d="M253.21,114.33V100.7h2.45v9.27h0.14l4.09-9.27h2.86v13.63h-2.45v-9.54h-0.14l-4.36,9.54
				C255.8,114.33,253.21,114.33,253.21,114.33z"/>
		</g>
	</g>
</g>
<g class="st0">
	<g class="st1">
		<g>
			<path class="st3" d="M45,33.93h-9.56v-9.56H45V33.93z M45,88.34h-9.56v-44.8H45V88.34z"/>
			<path class="st3" d="M77,88.34h-8.95l-0.61-2.58c-1.81,1.72-3.95,2.58-6.42,2.58c-3.16,0-5.61-1.41-7.36-4.22
				c-1.5-2.37-2.25-5.23-2.25-8.57V56.33c0-3.25,0.75-6.09,2.25-8.53c1.78-2.84,4.19-4.26,7.22-4.26c2.53,0,4.72,0.86,6.56,2.58
				V24.38H77V88.34z M67.44,78.77V53.11c0-0.85-0.33-1.59-0.99-2.23c-0.66-0.64-1.42-0.96-2.27-0.96s-1.6,0.32-2.24,0.96
				c-0.65,0.64-0.97,1.39-0.97,2.23v25.66c0,0.85,0.32,1.59,0.97,2.23s1.39,0.96,2.24,0.96c0.88,0,1.64-0.31,2.29-0.94
				C67.12,80.4,67.44,79.65,67.44,78.77z"/>
			<path class="st3" d="M92.98,56.33h-9.56v-9.56h9.56V56.33z M92.98,88.34h-9.56v-9.61h9.56V88.34z"/>
			<path class="st3" d="M124.99,75.54c0,3.53-1.25,6.54-3.75,9.04s-5.51,3.75-9.04,3.75c-3.56,0-6.58-1.24-9.07-3.73
				s-3.73-5.51-3.73-9.07V37.17c0-3.56,1.24-6.58,3.73-9.07s5.51-3.73,9.07-3.73c3.47,0,6.47,1.27,9,3.8s3.8,5.53,3.8,9v3.19h-9.56
				c0-0.44,0.03-1.12,0.09-2.04c0.06-0.92,0.09-1.63,0.09-2.13c0-3.62-1.15-5.44-3.44-5.44c-0.88,0-1.64,0.31-2.27,0.94
				s-0.94,1.38-0.94,2.25v44.84c0,2.13,1.07,3.19,3.21,3.19c2.3,0,3.44-1.8,3.44-5.42c0-0.6-0.03-1.37-0.09-2.33
				s-0.09-1.58-0.09-1.86H125v3.18H124.99z"/>
			<path class="st3" d="M156.99,88.34h-9.56V62.75c0-0.84-0.33-1.58-0.99-2.23c-0.66-0.64-1.42-0.96-2.27-0.96h-3.21v28.77h-9.56
				V24.38h12.79c3.47,0,6.47,1.27,9,3.8s3.8,5.53,3.8,9v9.61c0,3.78-1.44,6.97-4.31,9.56c2.87,2.59,4.31,5.79,4.31,9.61
				L156.99,88.34L156.99,88.34z M147.43,50V33.94c0-0.84-0.33-1.59-0.99-2.23s-1.42-0.96-2.27-0.96h-3.21v22.44h3.21
				c0.85,0,1.6-0.32,2.27-0.96C147.1,51.59,147.43,50.85,147.43,50z"/>
			<path class="st3" d="M205.02,88.34h-9.56v-54.4c0-0.84-0.32-1.59-0.97-2.23s-1.39-0.96-2.24-0.96c-0.88,0-1.64,0.31-2.29,0.94
				c-0.65,0.63-0.97,1.38-0.97,2.25v54.4h-9.56v-54.4c0-0.84-0.33-1.59-0.99-2.23s-1.42-0.96-2.27-0.96c-0.88,0-1.64,0.31-2.27,0.94
				c-0.63,0.63-0.94,1.38-0.94,2.25v54.4h-9.56V37.17c0-3.53,1.16-6.54,3.47-9.04s5.22-3.75,8.72-3.75c3.44,0,6.31,1.14,8.62,3.42
				c2.31-2.28,5.19-3.42,8.62-3.42c3.47,0,6.36,1.26,8.69,3.77c2.33,2.52,3.49,5.52,3.49,9.02v51.17H205.02z"/>
		</g>
		<g>
			<path class="st3" d="M43.41,114.6c-0.75,0-1.34-0.2-1.77-0.6c-0.44-0.4-0.75-0.97-0.95-1.72L40,109.69
				c-0.29-1.09-0.89-1.64-1.8-1.64h-0.93v6.27h-2.45V100.7h2.45v5.59h0.93c0.29,0,0.56-0.12,0.82-0.35
				c0.25-0.24,0.49-0.66,0.71-1.28l0.68-1.91c0.29-0.8,0.63-1.39,1.02-1.76s0.96-0.56,1.7-0.56c0.34,0,0.85,0.09,1.5,0.27v1.09
				c-0.55,0-0.93,0.09-1.16,0.27s-0.39,0.41-0.48,0.68l-0.68,1.91c-0.29,0.82-0.58,1.4-0.87,1.73c-0.29,0.34-0.65,0.56-1.06,0.67
				v0.11c0.49,0.11,0.92,0.34,1.29,0.68c0.37,0.35,0.68,0.96,0.91,1.85l0.68,2.59c0.07,0.27,0.23,0.5,0.46,0.68
				c0.24,0.18,0.63,0.27,1.17,0.27v1.09C44.33,114.51,43.83,114.6,43.41,114.6z"/>
			<path class="st3" d="M51.18,114.6c-1.09,0-2.01-0.22-2.75-0.67c-0.75-0.44-1.31-1.19-1.7-2.22c-0.39-1.04-0.59-2.44-0.59-4.2
				c0-1.78,0.19-3.19,0.59-4.21c0.39-1.03,0.96-1.76,1.7-2.21c0.75-0.45,1.66-0.67,2.75-0.67s2.01,0.22,2.77,0.67
				c0.75,0.45,1.32,1.18,1.7,2.21s0.57,2.43,0.57,4.21c0,1.76-0.19,3.16-0.57,4.2s-0.95,1.78-1.7,2.22
				C53.19,114.38,52.27,114.6,51.18,114.6z M51.18,113.1c0.45,0,0.88-0.16,1.27-0.49c0.39-0.33,0.71-0.9,0.95-1.7
				c0.25-0.81,0.37-1.94,0.37-3.39s-0.12-2.59-0.37-3.39c-0.25-0.81-0.56-1.38-0.95-1.7c-0.39-0.33-0.81-0.49-1.27-0.49
				c-0.45,0-0.88,0.16-1.27,0.49c-0.39,0.33-0.71,0.9-0.95,1.7c-0.25,0.81-0.37,1.94-0.37,3.39s0.12,2.59,0.37,3.39
				c0.25,0.81,0.56,1.38,0.95,1.7C50.3,112.94,50.73,113.1,51.18,113.1z"/>
			<path class="st3" d="M59.22,114.33V100.7h2.45v5.86h4.5v-5.86h2.45v13.63h-2.45v-6h-4.5v6
				C61.67,114.33,59.22,114.33,59.22,114.33z"/>
			<path class="st3" d="M74.22,114.33v-11.86h-3.54v-1.77h9.54v1.77h-3.54v11.86H74.22z"/>
			<path class="st3" d="M85.53,114.6c-0.82,0-1.53-0.12-2.14-0.35c-0.61-0.24-1.09-0.67-1.43-1.29c-0.35-0.63-0.52-1.53-0.52-2.71
				c0-1.15,0.17-2.02,0.52-2.63c0.34-0.61,0.82-1.03,1.43-1.25c0.61-0.23,1.32-0.34,2.14-0.34c0.42,0,0.88,0.03,1.38,0.08
				s0.95,0.12,1.35,0.19v-1.23c0-1.24-0.26-2.04-0.78-2.43s-1.26-0.57-2.22-0.57h-2.73v-1.09c0.42-0.15,0.93-0.27,1.54-0.38
				s1.19-0.16,1.73-0.16c1.09,0,2,0.12,2.73,0.37s1.27,0.7,1.64,1.36s0.55,1.63,0.55,2.9v9.27h-2.04l-0.14-0.82H88.4
				c-0.35,0.35-0.77,0.61-1.28,0.8S86.08,114.6,85.53,114.6z M86.35,112.97c0.35,0,0.7-0.06,1.06-0.18s0.65-0.24,0.85-0.37v-4.77
				h-1.91c-0.45,0-0.87,0.07-1.24,0.22s-0.67,0.4-0.89,0.78c-0.22,0.37-0.33,0.9-0.33,1.6c0,0.73,0.11,1.29,0.33,1.68
				s0.51,0.66,0.89,0.82C85.48,112.89,85.9,112.97,86.35,112.97z"/>
			<path class="st3" d="M102.85,114.6c-0.75,0-1.34-0.2-1.77-0.6c-0.44-0.4-0.75-0.97-0.95-1.72l-0.68-2.59
				c-0.29-1.09-0.89-1.64-1.8-1.64h-0.93v6.27h-2.45V100.7h2.45v5.59h0.93c0.29,0,0.56-0.12,0.82-0.35
				c0.25-0.24,0.49-0.66,0.71-1.28l0.68-1.91c0.29-0.8,0.63-1.39,1.02-1.76s0.96-0.56,1.7-0.56c0.34,0,0.85,0.09,1.5,0.27v1.09
				c-0.55,0-0.93,0.09-1.16,0.27s-0.39,0.41-0.48,0.68l-0.68,1.91c-0.29,0.82-0.58,1.4-0.87,1.73c-0.29,0.34-0.65,0.56-1.06,0.67
				v0.11c0.49,0.11,0.92,0.34,1.29,0.68c0.37,0.35,0.68,0.96,0.91,1.85l0.68,2.59c0.07,0.27,0.23,0.5,0.46,0.68
				c0.24,0.18,0.63,0.27,1.17,0.27v1.09C103.77,114.51,103.27,114.6,102.85,114.6z"/>
			<path class="st3" d="M108.44,114.33v-11.86h-3.54v-1.77h9.54v1.77h-3.54v11.86H108.44z"/>
			<path class="st3" d="M120.84,114.6c-0.82,0-1.58-0.04-2.28-0.12s-1.4-0.22-2.09-0.42V100.7h2.45v5.32
				c0.42-0.07,0.84-0.14,1.27-0.19s0.91-0.08,1.46-0.08c0.82,0,1.53,0.12,2.14,0.35c0.61,0.24,1.09,0.68,1.43,1.32
				s0.52,1.59,0.52,2.82c0,1.18-0.18,2.09-0.55,2.71c-0.36,0.63-0.91,1.06-1.64,1.29C122.84,114.48,121.93,114.6,120.84,114.6z
				 M118.93,112.97h1.91c0.51,0,0.94-0.08,1.31-0.23c0.36-0.15,0.65-0.43,0.85-0.82s0.3-0.95,0.3-1.68s-0.1-1.29-0.3-1.68
				c-0.2-0.39-0.48-0.66-0.85-0.82c-0.36-0.15-0.8-0.23-1.31-0.23h-1.91V112.97z M127.66,114.33V100.7h2.45v13.63
				C130.11,114.33,127.66,114.33,127.66,114.33z"/>
			<path class="st3" d="M140.47,114.33V100.7h2.45v9.27h0.14l4.09-9.27h2.86v13.63h-2.45v-9.54h-0.14l-4.36,9.54
				C143.06,114.33,140.47,114.33,140.47,114.33z"/>
			<path class="st3" d="M168.97,114.6c-0.75,0-1.34-0.2-1.77-0.6c-0.44-0.4-0.75-0.97-0.95-1.72l-0.68-2.59
				c-0.29-1.09-0.89-1.64-1.8-1.64h-0.93v6.27h-2.45V100.7h2.45v5.59h0.93c0.29,0,0.56-0.12,0.82-0.35
				c0.25-0.24,0.49-0.66,0.71-1.28l0.68-1.91c0.29-0.8,0.63-1.39,1.02-1.76s0.96-0.56,1.7-0.56c0.34,0,0.85,0.09,1.5,0.27v1.09
				c-0.55,0-0.93,0.09-1.16,0.27c-0.23,0.18-0.39,0.41-0.48,0.68l-0.68,1.91c-0.29,0.82-0.58,1.4-0.87,1.73
				c-0.29,0.34-0.65,0.56-1.06,0.67v0.11c0.49,0.11,0.92,0.34,1.29,0.68c0.37,0.35,0.68,0.96,0.91,1.85l0.68,2.59
				c0.07,0.27,0.23,0.5,0.46,0.68c0.24,0.18,0.63,0.27,1.17,0.27v1.09C169.88,114.51,169.38,114.6,168.97,114.6z"/>
			<path class="st3" d="M176.74,114.6c-1.09,0-2.01-0.22-2.75-0.67c-0.75-0.44-1.31-1.19-1.7-2.22c-0.39-1.04-0.59-2.44-0.59-4.2
				c0-1.78,0.19-3.19,0.59-4.21c0.39-1.03,0.96-1.76,1.7-2.21c0.75-0.45,1.66-0.67,2.75-0.67s2.01,0.22,2.77,0.67
				c0.75,0.45,1.32,1.18,1.7,2.21s0.57,2.43,0.57,4.21c0,1.76-0.19,3.16-0.57,4.2s-0.95,1.78-1.7,2.22
				C178.75,114.38,177.83,114.6,176.74,114.6z M176.74,113.1c0.45,0,0.88-0.16,1.27-0.49c0.39-0.33,0.71-0.9,0.95-1.7
				c0.25-0.81,0.37-1.94,0.37-3.39s-0.12-2.59-0.37-3.39c-0.25-0.81-0.56-1.38-0.95-1.7c-0.39-0.33-0.81-0.49-1.27-0.49
				c-0.45,0-0.88,0.16-1.27,0.49c-0.39,0.33-0.71,0.9-0.95,1.7c-0.25,0.81-0.37,1.94-0.37,3.39s0.12,2.59,0.37,3.39
				c0.25,0.81,0.56,1.38,0.95,1.7C175.86,112.94,176.28,113.1,176.74,113.1z"/>
			<path class="st3" d="M184.51,114.33l0.95-13.63h2.86l3.22,8.59h0.11l3.22-8.59h2.86l0.95,13.63h-2.32l-0.68-9.68h-0.14
				l-2.86,7.63h-2.18l-2.86-7.63h-0.14l-0.68,9.68C186.82,114.33,184.51,114.33,184.51,114.33z"/>
			<path class="st3" d="M201.96,114.33V100.7h9.41v13.63h-2.45v-11.86h-4.5v11.86C204.42,114.33,201.96,114.33,201.96,114.33z"/>
			<path class="st3" d="M218.45,114.6c-0.82,0-1.53-0.12-2.14-0.35c-0.61-0.24-1.09-0.67-1.43-1.29c-0.35-0.63-0.52-1.53-0.52-2.71
				c0-1.15,0.17-2.02,0.52-2.63c0.34-0.61,0.82-1.03,1.43-1.25c0.61-0.23,1.32-0.34,2.14-0.34c0.42,0,0.88,0.03,1.38,0.08
				s0.95,0.12,1.35,0.19v-1.23c0-1.24-0.26-2.04-0.78-2.43s-1.26-0.57-2.22-0.57h-2.73v-1.09c0.42-0.15,0.93-0.27,1.54-0.38
				s1.19-0.16,1.73-0.16c1.09,0,2,0.12,2.73,0.37s1.27,0.7,1.64,1.36c0.36,0.66,0.55,1.63,0.55,2.9v9.27h-2.04l-0.14-0.82h-0.14
				c-0.35,0.35-0.77,0.61-1.28,0.8S219,114.6,218.45,114.6z M219.27,112.97c0.35,0,0.7-0.06,1.06-0.18s0.65-0.24,0.85-0.37v-4.77
				h-1.91c-0.45,0-0.87,0.07-1.24,0.22s-0.67,0.4-0.89,0.78c-0.22,0.37-0.33,0.9-0.33,1.6c0,0.73,0.11,1.29,0.33,1.68
				s0.51,0.66,0.89,0.82C218.4,112.89,218.81,112.97,219.27,112.97z"/>
			<path class="st3" d="M227.18,114.33V100.7h2.45v5.86h4.5v-5.86h2.45v13.63h-2.45v-6h-4.5v6
				C229.63,114.33,227.18,114.33,227.18,114.33z"/>
			<path class="st3" d="M240.13,114.33V100.7h2.45v9.27h0.14l4.09-9.27h2.86v13.63h-2.45v-9.54h-0.14l-4.36,9.54
				C242.72,114.33,240.13,114.33,240.13,114.33z"/>
			<path class="st3" d="M253.21,114.33V100.7h2.45v9.27h0.14l4.09-9.27h2.86v13.63h-2.45v-9.54h-0.14l-4.36,9.54
				C255.8,114.33,253.21,114.33,253.21,114.33z"/>
		</g>
	</g>
</g>
<g id="Слой_3" class="st0">
	<g class="st1">
		<g>
			<path class="st2" d="M45.54,33.93h-9.56v-9.56h9.56V33.93z M45.54,88.34h-9.56v-44.8h9.56V88.34z"/>
			<path class="st2" d="M77.55,88.34H68.6l-0.61-2.58c-1.81,1.72-3.95,2.58-6.42,2.58c-3.16,0-5.61-1.41-7.36-4.22
				c-1.5-2.37-2.25-5.23-2.25-8.57V56.33c0-3.25,0.75-6.09,2.25-8.53c1.78-2.84,4.19-4.26,7.22-4.26c2.53,0,4.72,0.86,6.56,2.58
				V24.38h9.56C77.55,24.38,77.55,88.34,77.55,88.34z M67.99,78.77V53.11c0-0.85-0.33-1.59-0.99-2.23
				c-0.66-0.64-1.42-0.96-2.27-0.96s-1.6,0.32-2.24,0.96c-0.65,0.64-0.97,1.39-0.97,2.23v25.66c0,0.85,0.32,1.59,0.97,2.23
				s1.39,0.96,2.24,0.96c0.88,0,1.64-0.31,2.29-0.94C67.67,80.4,67.99,79.65,67.99,78.77z"/>
			<path class="st2" d="M93.53,56.33h-9.56v-9.56h9.56V56.33z M93.53,88.34h-9.56v-9.61h9.56V88.34z"/>
			<path class="st2" d="M125.53,75.54c0,3.53-1.25,6.54-3.75,9.04s-5.51,3.75-9.04,3.75c-3.56,0-6.58-1.24-9.07-3.73
				s-3.73-5.51-3.73-9.07V37.17c0-3.56,1.24-6.58,3.73-9.07s5.51-3.73,9.07-3.73c3.47,0,6.47,1.27,9,3.8s3.8,5.53,3.8,9v3.19h-9.56
				c0-0.44,0.03-1.12,0.09-2.04c0.06-0.92,0.09-1.63,0.09-2.13c0-3.62-1.15-5.44-3.44-5.44c-0.88,0-1.64,0.31-2.27,0.94
				s-0.94,1.38-0.94,2.25v44.84c0,2.13,1.07,3.19,3.21,3.19c2.3,0,3.44-1.8,3.44-5.42c0-0.6-0.03-1.37-0.09-2.33
				s-0.09-1.58-0.09-1.86h9.56v3.18H125.53z"/>
			<path class="st2" d="M157.53,88.34h-9.56V62.75c0-0.84-0.33-1.58-0.99-2.23c-0.66-0.64-1.42-0.96-2.27-0.96h-3.21v28.77h-9.56
				V24.38h12.79c3.47,0,6.47,1.27,9,3.8s3.8,5.53,3.8,9v9.61c0,3.78-1.44,6.97-4.31,9.56c2.87,2.59,4.31,5.79,4.31,9.61
				L157.53,88.34L157.53,88.34z M147.98,50V33.94c0-0.84-0.33-1.59-0.99-2.23s-1.42-0.96-2.27-0.96h-3.21v22.44h3.21
				c0.85,0,1.6-0.32,2.27-0.96C147.65,51.59,147.98,50.85,147.98,50z"/>
			<path class="st2" d="M205.56,88.34H196v-54.4c0-0.84-0.32-1.59-0.97-2.23s-1.39-0.96-2.24-0.96c-0.88,0-1.64,0.31-2.29,0.94
				c-0.65,0.63-0.97,1.38-0.97,2.25v54.4h-9.56v-54.4c0-0.84-0.33-1.59-0.99-2.23s-1.42-0.96-2.27-0.96c-0.88,0-1.64,0.31-2.27,0.94
				c-0.63,0.63-0.94,1.38-0.94,2.25v54.4h-9.56V37.17c0-3.53,1.16-6.54,3.47-9.04s5.22-3.75,8.72-3.75c3.44,0,6.31,1.14,8.62,3.42
				c2.31-2.28,5.19-3.42,8.62-3.42c3.47,0,6.36,1.26,8.69,3.77c2.33,2.52,3.49,5.52,3.49,9.02v51.17H205.56z"/>
		</g>
		<g>
			<path class="st2" d="M40.14,114.6c-1.22,0-2.22-0.21-3.01-0.64c-0.79-0.43-1.37-1.15-1.75-2.18c-0.37-1.03-0.56-2.45-0.56-4.27
				s0.18-3.24,0.55-4.27c0.36-1.03,0.92-1.75,1.68-2.18c0.75-0.43,1.69-0.64,2.82-0.64c0.55,0,1.13,0.05,1.75,0.16
				s1.13,0.24,1.53,0.38v1.09h-2.73c-0.67,0-1.25,0.15-1.72,0.45c-0.47,0.3-0.83,0.85-1.06,1.64s-0.35,1.91-0.35,3.37
				c0,1.45,0.12,2.58,0.37,3.37s0.62,1.34,1.13,1.64c0.51,0.3,1.15,0.45,1.91,0.45h2.73v1.09c-0.4,0.13-0.91,0.25-1.53,0.37
				C41.26,114.54,40.68,114.6,40.14,114.6z"/>
			<path class="st2" d="M49.82,114.6c-1.09,0-2.01-0.22-2.75-0.67c-0.75-0.44-1.31-1.19-1.7-2.22c-0.39-1.04-0.59-2.44-0.59-4.2
				c0-1.78,0.19-3.19,0.59-4.21c0.39-1.03,0.96-1.76,1.7-2.21c0.75-0.45,1.66-0.67,2.75-0.67s2.01,0.22,2.77,0.67
				c0.75,0.45,1.32,1.18,1.7,2.21s0.57,2.43,0.57,4.21c0,1.76-0.19,3.16-0.57,4.2s-0.95,1.78-1.7,2.22
				C51.83,114.38,50.91,114.6,49.82,114.6z M49.82,113.1c0.45,0,0.88-0.16,1.27-0.49c0.39-0.33,0.71-0.9,0.95-1.7
				c0.25-0.81,0.37-1.94,0.37-3.39s-0.12-2.59-0.37-3.39c-0.25-0.81-0.56-1.38-0.95-1.7c-0.39-0.33-0.81-0.49-1.27-0.49
				c-0.45,0-0.88,0.16-1.27,0.49c-0.39,0.33-0.71,0.9-0.95,1.7c-0.25,0.81-0.37,1.94-0.37,3.39s0.12,2.59,0.37,3.39
				c0.25,0.81,0.56,1.38,0.95,1.7C48.94,112.94,49.36,113.1,49.82,113.1z"/>
			<path class="st2" d="M57.86,114.33V100.7h2.04l0.14,0.82h0.14c0.35-0.34,0.77-0.61,1.28-0.8s1.04-0.29,1.58-0.29
				c0.87,0,1.62,0.11,2.25,0.34c0.63,0.23,1.11,0.64,1.46,1.23s0.52,1.43,0.52,2.52v9.82h-2.45v-9.82c0-0.96-0.25-1.61-0.74-1.95
				c-0.49-0.34-1.11-0.5-1.85-0.5c-0.35,0-0.7,0.05-1.06,0.16s-0.65,0.24-0.85,0.38v11.72C60.32,114.33,57.86,114.33,57.86,114.33z"
				/>
			<path class="st2" d="M75.04,114.6c-0.73,0-1.38-0.12-1.95-0.37s-1.03-0.7-1.36-1.36s-0.5-1.63-0.5-2.9v-7.23h-1.64v-1.77h1.64
				V97.7h2.45v3.27h3.82v1.23c-0.4,0.13-0.91,0.25-1.53,0.37c-0.62,0.12-1.2,0.18-1.74,0.18h-0.55v7.23c0,0.82,0.1,1.44,0.3,1.87
				c0.2,0.43,0.45,0.72,0.75,0.89c0.3,0.16,0.59,0.25,0.86,0.25h2.45v1.09c-0.22,0.09-0.51,0.18-0.89,0.26
				c-0.37,0.08-0.75,0.15-1.13,0.2S75.31,114.6,75.04,114.6z"/>
			<path class="st2" d="M83.49,114.6c-0.82,0-1.53-0.12-2.14-0.35c-0.61-0.24-1.09-0.67-1.43-1.29c-0.35-0.63-0.52-1.53-0.52-2.71
				c0-1.15,0.17-2.02,0.52-2.63c0.34-0.61,0.82-1.03,1.43-1.25c0.61-0.23,1.32-0.34,2.14-0.34c0.42,0,0.88,0.03,1.38,0.08
				s0.95,0.12,1.35,0.19v-1.23c0-1.24-0.26-2.04-0.78-2.43s-1.26-0.57-2.22-0.57h-2.73v-1.09c0.42-0.15,0.93-0.27,1.54-0.38
				s1.19-0.16,1.73-0.16c1.09,0,2,0.12,2.73,0.37s1.27,0.7,1.64,1.36s0.55,1.63,0.55,2.9v9.27h-2.04l-0.14-0.82h-0.14
				c-0.35,0.35-0.77,0.61-1.28,0.8S84.04,114.6,83.49,114.6z M84.31,112.97c0.35,0,0.7-0.06,1.06-0.18s0.65-0.24,0.85-0.37v-4.77
				h-1.91c-0.45,0-0.87,0.07-1.24,0.22s-0.67,0.4-0.89,0.78c-0.22,0.37-0.33,0.9-0.33,1.6c0,0.73,0.11,1.29,0.33,1.68
				s0.51,0.66,0.89,0.82C83.44,112.89,83.85,112.97,84.31,112.97z"/>
			<path class="st2" d="M96.99,114.6c-1.22,0-2.22-0.21-3.01-0.64s-1.37-1.15-1.75-2.18c-0.37-1.03-0.56-2.45-0.56-4.27
				s0.18-3.24,0.55-4.27c0.36-1.03,0.92-1.75,1.68-2.18c0.75-0.43,1.69-0.64,2.82-0.64c0.55,0,1.13,0.05,1.75,0.16
				s1.13,0.24,1.53,0.38v1.09h-2.73c-0.67,0-1.25,0.15-1.72,0.45c-0.47,0.3-0.83,0.85-1.06,1.64s-0.35,1.91-0.35,3.37
				c0,1.45,0.12,2.58,0.37,3.37s0.62,1.34,1.13,1.64c0.51,0.3,1.15,0.45,1.91,0.45h2.73v1.09c-0.4,0.13-0.91,0.25-1.53,0.37
				C98.11,114.54,97.53,114.6,96.99,114.6z"/>
			<path class="st2" d="M106.67,114.6c-0.73,0-1.38-0.12-1.95-0.37s-1.03-0.7-1.36-1.36s-0.5-1.63-0.5-2.9v-7.23h-1.64v-1.77h1.64
				V97.7h2.45v3.27h3.82v1.23c-0.4,0.13-0.91,0.25-1.53,0.37c-0.62,0.12-1.2,0.18-1.74,0.18h-0.55v7.23c0,0.82,0.1,1.44,0.3,1.87
				c0.2,0.43,0.45,0.72,0.75,0.89c0.3,0.16,0.59,0.25,0.86,0.25h2.45v1.09c-0.22,0.09-0.51,0.18-0.89,0.26
				c-0.37,0.08-0.75,0.15-1.13,0.2S106.94,114.6,106.67,114.6z"/>
			<path class="st2" d="M114.44,114.6c-0.54,0-1.12-0.06-1.73-0.18s-1.12-0.24-1.54-0.37v-1.09h2.73c1.24,0,2.14-0.16,2.7-0.48
				s0.85-0.89,0.85-1.7c0-0.55-0.15-0.98-0.46-1.31c-0.31-0.33-0.7-0.6-1.19-0.83c-0.48-0.23-1-0.44-1.55-0.65s-1.07-0.47-1.55-0.79
				s-0.88-0.73-1.19-1.24c-0.31-0.51-0.46-1.17-0.46-1.99c0-1.36,0.41-2.29,1.23-2.79s2.04-0.75,3.68-0.75
				c0.54,0,1.13,0.05,1.74,0.16c0.62,0.11,1.13,0.24,1.53,0.38v1.09h-2.73c-0.95,0-1.68,0.15-2.21,0.44s-0.79,0.78-0.79,1.47
				c0,0.55,0.15,0.98,0.46,1.31s0.7,0.6,1.19,0.83c0.48,0.23,1,0.45,1.55,0.65c0.55,0.21,1.07,0.47,1.55,0.79s0.88,0.73,1.19,1.24
				s0.46,1.17,0.46,1.99c0,1-0.19,1.78-0.57,2.33s-0.97,0.94-1.77,1.16C116.74,114.49,115.71,114.6,114.44,114.6z"/>
			<path class="st2" d="M132.98,114.6c-1.36,0-2.43-0.42-3.2-1.27s-1.16-2.15-1.16-3.91c0-0.82,0.06-1.6,0.18-2.36
				s0.24-1.33,0.37-1.73h1.91v4.09c0,0.95,0.1,1.66,0.3,2.15s0.45,0.82,0.75,1c0.3,0.17,0.59,0.26,0.86,0.26
				c0.36,0,0.68-0.08,0.95-0.23s0.55-0.44,0.82-0.85c0.27-0.41,0.59-1,0.95-1.79c-0.98-1.4-1.79-2.6-2.41-3.6
				c-0.63-1-1.11-1.87-1.46-2.62s-0.58-1.42-0.71-2.03s-0.19-1.22-0.19-1.84c0-1.64,0.4-2.86,1.2-3.68s1.94-1.23,3.44-1.23
				c0.82,0,1.6,0.05,2.36,0.16c0.75,0.11,1.33,0.24,1.73,0.38v1.23h-3.54c-0.82,0-1.48,0.27-1.98,0.8c-0.5,0.54-0.75,1.31-0.75,2.33
				c0,0.44,0.03,0.88,0.1,1.34c0.06,0.45,0.2,0.96,0.41,1.53c0.21,0.56,0.54,1.22,0.98,1.98c0.44,0.75,1.04,1.64,1.79,2.66l1.5-3.68
				h2.45l-2.45,6l3.27,4.64h-2.73l-1.5-2.18c-0.31,0.55-0.64,1-0.98,1.36c-0.35,0.36-0.77,0.64-1.27,0.82S133.79,114.6,132.98,114.6
				z"/>
			<path class="st2" d="M155.06,114.6c-1.22,0-2.22-0.21-3.01-0.64s-1.37-1.15-1.75-2.18c-0.37-1.03-0.56-2.45-0.56-4.27
				s0.18-3.24,0.55-4.27c0.36-1.03,0.92-1.75,1.68-2.18c0.75-0.43,1.69-0.64,2.82-0.64c0.55,0,1.13,0.05,1.75,0.16
				s1.13,0.24,1.53,0.38v1.09h-2.73c-0.67,0-1.25,0.15-1.72,0.45c-0.47,0.3-0.83,0.85-1.06,1.64s-0.35,1.91-0.35,3.37
				c0,1.45,0.12,2.58,0.37,3.37s0.62,1.34,1.13,1.64c0.51,0.3,1.15,0.45,1.91,0.45h2.73v1.09c-0.4,0.13-0.91,0.25-1.53,0.37
				C156.19,114.54,155.61,114.6,155.06,114.6z"/>
			<path class="st2" d="M164.74,114.6c-1.09,0-2.01-0.22-2.75-0.67c-0.75-0.44-1.31-1.19-1.7-2.22c-0.39-1.04-0.59-2.44-0.59-4.2
				c0-1.78,0.19-3.19,0.59-4.21c0.39-1.03,0.96-1.76,1.7-2.21c0.75-0.45,1.66-0.67,2.75-0.67s2.01,0.22,2.77,0.67
				c0.75,0.45,1.32,1.18,1.7,2.21s0.57,2.43,0.57,4.21c0,1.76-0.19,3.16-0.57,4.2s-0.95,1.78-1.7,2.22
				C166.75,114.38,165.83,114.6,164.74,114.6z M164.74,113.1c0.45,0,0.88-0.16,1.27-0.49c0.39-0.33,0.71-0.9,0.95-1.7
				c0.25-0.81,0.37-1.94,0.37-3.39s-0.12-2.59-0.37-3.39c-0.25-0.81-0.56-1.38-0.95-1.7c-0.39-0.33-0.81-0.49-1.27-0.49
				c-0.45,0-0.88,0.16-1.27,0.49c-0.39,0.33-0.71,0.9-0.95,1.7c-0.25,0.81-0.37,1.94-0.37,3.39s0.12,2.59,0.37,3.39
				c0.25,0.81,0.56,1.38,0.95,1.7C163.86,112.94,164.29,113.1,164.74,113.1z"/>
			<path class="st2" d="M172.78,114.33V100.7h2.04l0.14,0.82h0.14c0.35-0.34,0.73-0.61,1.16-0.8c0.43-0.19,0.95-0.29,1.57-0.29
				c0.62,0,1.19,0.09,1.73,0.26c0.54,0.17,0.98,0.49,1.32,0.94c0.45-0.4,1.01-0.7,1.66-0.9c0.65-0.2,1.22-0.3,1.69-0.3
				c0.73,0,1.38,0.11,1.95,0.34c0.57,0.23,1.03,0.64,1.36,1.23c0.34,0.59,0.5,1.43,0.5,2.52v9.82h-2.45v-9.82
				c0-0.64-0.1-1.13-0.31-1.49c-0.21-0.35-0.48-0.6-0.82-0.75c-0.34-0.15-0.69-0.22-1.05-0.22c-0.4,0-0.79,0.05-1.17,0.16
				s-0.67,0.24-0.87,0.38c0.07,0.2,0.14,0.46,0.19,0.79s0.08,0.7,0.08,1.12v9.82h-2.45v-9.82c0-0.64-0.1-1.13-0.31-1.49
				c-0.21-0.35-0.48-0.6-0.82-0.75c-0.34-0.15-0.69-0.22-1.05-0.22c-0.35,0-0.68,0.05-1,0.16s-0.58,0.24-0.78,0.38v11.72h-2.45
				V114.33z"/>
			<path class="st2" d="M191.6,119.78V100.7h2.04l0.14,0.82h0.14c0.35-0.34,0.77-0.61,1.28-0.8s1.04-0.29,1.58-0.29
				c0.96,0,1.78,0.21,2.44,0.64s1.17,1.15,1.53,2.18c0.35,1.03,0.53,2.45,0.53,4.27s-0.18,3.24-0.53,4.27s-0.86,1.75-1.53,2.18
				c-0.66,0.43-1.48,0.64-2.44,0.64c-0.55,0-1.03-0.06-1.46-0.19c-0.43-0.13-0.85-0.29-1.27-0.49v5.86L191.6,119.78L191.6,119.78z
				 M195.96,112.97c0.6,0,1.11-0.15,1.54-0.45c0.43-0.3,0.75-0.85,0.98-1.64s0.34-1.91,0.34-3.37c0-1.45-0.11-2.58-0.34-3.37
				s-0.55-1.34-0.98-1.64s-0.94-0.45-1.54-0.45c-0.35,0-0.7,0.05-1.06,0.16s-0.65,0.24-0.85,0.38v9.82c0.2,0.13,0.48,0.25,0.85,0.37
				C195.26,112.91,195.61,112.97,195.96,112.97z"/>
			<path class="st2" d="M207.82,114.6c-0.82,0-1.53-0.12-2.14-0.35c-0.61-0.24-1.09-0.67-1.43-1.29c-0.35-0.63-0.52-1.53-0.52-2.71
				c0-1.15,0.17-2.02,0.52-2.63c0.34-0.61,0.82-1.03,1.43-1.25c0.61-0.23,1.32-0.34,2.14-0.34c0.42,0,0.88,0.03,1.38,0.08
				s0.95,0.12,1.35,0.19v-1.23c0-1.24-0.26-2.04-0.78-2.43s-1.26-0.57-2.22-0.57h-2.73v-1.09c0.42-0.15,0.93-0.27,1.54-0.38
				s1.19-0.16,1.73-0.16c1.09,0,2,0.12,2.73,0.37s1.27,0.7,1.64,1.36s0.55,1.63,0.55,2.9v9.27h-2.04l-0.14-0.82h-0.14
				c-0.35,0.35-0.77,0.61-1.28,0.8S208.36,114.6,207.82,114.6z M208.64,112.97c0.35,0,0.7-0.06,1.06-0.18s0.65-0.24,0.85-0.37v-4.77
				h-1.91c-0.45,0-0.87,0.07-1.24,0.22s-0.67,0.4-0.89,0.78c-0.22,0.37-0.33,0.9-0.33,1.6c0,0.73,0.11,1.29,0.33,1.68
				s0.51,0.66,0.89,0.82C207.77,112.89,208.18,112.97,208.64,112.97z"/>
			<path class="st2" d="M216.54,114.33V100.7h2.04l0.14,0.82h0.14c0.35-0.34,0.77-0.61,1.28-0.8s1.04-0.29,1.58-0.29
				c0.87,0,1.62,0.11,2.25,0.34c0.63,0.23,1.11,0.64,1.46,1.23c0.35,0.59,0.52,1.43,0.52,2.52v9.82h-2.45v-9.82
				c0-0.96-0.25-1.61-0.74-1.95s-1.11-0.5-1.85-0.5c-0.35,0-0.7,0.05-1.06,0.16s-0.65,0.24-0.85,0.38v11.72
				C219,114.33,216.54,114.33,216.54,114.33z"/>
			<path class="st2" d="M229.63,98.79v-3h2.45v3H229.63z M229.63,114.33V100.7h2.45v13.63
				C232.08,114.33,229.63,114.33,229.63,114.33z"/>
			<path class="st2" d="M240.94,114.6c-1.36,0-2.46-0.21-3.3-0.64s-1.45-1.15-1.84-2.18s-0.59-2.45-0.59-4.27s0.18-3.24,0.55-4.27
				c0.36-1.03,0.9-1.75,1.61-2.18s1.58-0.64,2.62-0.64c1.05,0,1.93,0.21,2.63,0.64c0.7,0.43,1.23,1.15,1.6,2.18
				c0.36,1.03,0.54,2.45,0.54,4.27v0.82h-7.09c0,1.76,0.29,2.98,0.89,3.64s1.57,1,2.93,1h2.73v1.09c-0.4,0.13-0.91,0.25-1.53,0.37
				C242.07,114.54,241.49,114.6,240.94,114.6z M237.67,106.7h4.63c0-1.24-0.11-2.2-0.33-2.89s-0.5-1.18-0.84-1.46
				c-0.35-0.28-0.73-0.42-1.15-0.42c-0.4,0-0.78,0.14-1.13,0.42s-0.64,0.77-0.86,1.46C237.78,104.5,237.67,105.46,237.67,106.7z"/>
			<path class="st2" d="M250.35,114.6c-0.54,0-1.12-0.06-1.73-0.18s-1.12-0.24-1.54-0.37v-1.09h2.73c1.24,0,2.14-0.16,2.7-0.48
				s0.85-0.89,0.85-1.7c0-0.55-0.16-0.98-0.46-1.31c-0.31-0.33-0.71-0.6-1.19-0.83s-1-0.44-1.55-0.65s-1.07-0.47-1.55-0.79
				s-0.88-0.73-1.19-1.24c-0.31-0.51-0.46-1.17-0.46-1.99c0-1.36,0.41-2.29,1.23-2.79c0.82-0.5,2.04-0.75,3.68-0.75
				c0.54,0,1.13,0.05,1.75,0.16s1.13,0.24,1.53,0.38v1.09h-2.73c-0.95,0-1.68,0.15-2.21,0.44c-0.53,0.29-0.79,0.78-0.79,1.47
				c0,0.55,0.15,0.98,0.46,1.31c0.31,0.33,0.7,0.6,1.19,0.83c0.48,0.23,1,0.45,1.55,0.65c0.55,0.21,1.07,0.47,1.55,0.79
				s0.88,0.73,1.19,1.24c0.31,0.51,0.46,1.17,0.46,1.99c0,1-0.19,1.78-0.57,2.33s-0.97,0.94-1.77,1.16
				C252.66,114.49,251.62,114.6,250.35,114.6z"/>
		</g>
	</g>
</g>
<g id="Слой_4" class="st0">
	<g class="st1">
		<g>
			<path class="st3" d="M45.54,33.93h-9.56v-9.56h9.56V33.93z M45.54,88.34h-9.56v-44.8h9.56V88.34z"/>
			<path class="st3" d="M77.55,88.34H68.6l-0.61-2.58c-1.81,1.72-3.95,2.58-6.42,2.58c-3.16,0-5.61-1.41-7.36-4.22
				c-1.5-2.37-2.25-5.23-2.25-8.57V56.33c0-3.25,0.75-6.09,2.25-8.53c1.78-2.84,4.19-4.26,7.22-4.26c2.53,0,4.72,0.86,6.56,2.58
				V24.38h9.56C77.55,24.38,77.55,88.34,77.55,88.34z M67.99,78.77V53.11c0-0.85-0.33-1.59-0.99-2.23
				c-0.66-0.64-1.42-0.96-2.27-0.96s-1.6,0.32-2.24,0.96c-0.65,0.64-0.97,1.39-0.97,2.23v25.66c0,0.85,0.32,1.59,0.97,2.23
				s1.39,0.96,2.24,0.96c0.88,0,1.64-0.31,2.29-0.94C67.67,80.4,67.99,79.65,67.99,78.77z"/>
			<path class="st3" d="M93.53,56.33h-9.56v-9.56h9.56V56.33z M93.53,88.34h-9.56v-9.61h9.56V88.34z"/>
			<path class="st3" d="M125.53,75.54c0,3.53-1.25,6.54-3.75,9.04s-5.51,3.75-9.04,3.75c-3.56,0-6.58-1.24-9.07-3.73
				s-3.73-5.51-3.73-9.07V37.17c0-3.56,1.24-6.58,3.73-9.07s5.51-3.73,9.07-3.73c3.47,0,6.47,1.27,9,3.8s3.8,5.53,3.8,9v3.19h-9.56
				c0-0.44,0.03-1.12,0.09-2.04c0.06-0.92,0.09-1.63,0.09-2.13c0-3.62-1.15-5.44-3.44-5.44c-0.88,0-1.64,0.31-2.27,0.94
				s-0.94,1.38-0.94,2.25v44.84c0,2.13,1.07,3.19,3.21,3.19c2.3,0,3.44-1.8,3.44-5.42c0-0.6-0.03-1.37-0.09-2.33
				s-0.09-1.58-0.09-1.86h9.56v3.18H125.53z"/>
			<path class="st3" d="M157.53,88.34h-9.56V62.75c0-0.84-0.33-1.58-0.99-2.23c-0.66-0.64-1.42-0.96-2.27-0.96h-3.21v28.77h-9.56
				V24.38h12.79c3.47,0,6.47,1.27,9,3.8s3.8,5.53,3.8,9v9.61c0,3.78-1.44,6.97-4.31,9.56c2.87,2.59,4.31,5.79,4.31,9.61
				L157.53,88.34L157.53,88.34z M147.98,50V33.94c0-0.84-0.33-1.59-0.99-2.23s-1.42-0.96-2.27-0.96h-3.21v22.44h3.21
				c0.85,0,1.6-0.32,2.27-0.96C147.65,51.59,147.98,50.85,147.98,50z"/>
			<path class="st3" d="M205.56,88.34H196v-54.4c0-0.84-0.32-1.59-0.97-2.23s-1.39-0.96-2.24-0.96c-0.88,0-1.64,0.31-2.29,0.94
				c-0.65,0.63-0.97,1.38-0.97,2.25v54.4h-9.56v-54.4c0-0.84-0.33-1.59-0.99-2.23s-1.42-0.96-2.27-0.96c-0.88,0-1.64,0.31-2.27,0.94
				c-0.63,0.63-0.94,1.38-0.94,2.25v54.4h-9.56V37.17c0-3.53,1.16-6.54,3.47-9.04s5.22-3.75,8.72-3.75c3.44,0,6.31,1.14,8.62,3.42
				c2.31-2.28,5.19-3.42,8.62-3.42c3.47,0,6.36,1.26,8.69,3.77c2.33,2.52,3.49,5.52,3.49,9.02v51.17H205.56z"/>
		</g>
		<g>
			<path class="st3" d="M40.14,114.6c-1.22,0-2.22-0.21-3.01-0.64c-0.79-0.43-1.37-1.15-1.75-2.18c-0.37-1.03-0.56-2.45-0.56-4.27
				s0.18-3.24,0.55-4.27c0.36-1.03,0.92-1.75,1.68-2.18c0.75-0.43,1.69-0.64,2.82-0.64c0.55,0,1.13,0.05,1.75,0.16
				s1.13,0.24,1.53,0.38v1.09h-2.73c-0.67,0-1.25,0.15-1.72,0.45c-0.47,0.3-0.83,0.85-1.06,1.64s-0.35,1.91-0.35,3.37
				c0,1.45,0.12,2.58,0.37,3.37s0.62,1.34,1.13,1.64c0.51,0.3,1.15,0.45,1.91,0.45h2.73v1.09c-0.4,0.13-0.91,0.25-1.53,0.37
				C41.26,114.54,40.68,114.6,40.14,114.6z"/>
			<path class="st3" d="M49.82,114.6c-1.09,0-2.01-0.22-2.75-0.67c-0.75-0.44-1.31-1.19-1.7-2.22c-0.39-1.04-0.59-2.44-0.59-4.2
				c0-1.78,0.19-3.19,0.59-4.21c0.39-1.03,0.96-1.76,1.7-2.21c0.75-0.45,1.66-0.67,2.75-0.67s2.01,0.22,2.77,0.67
				c0.75,0.45,1.32,1.18,1.7,2.21s0.57,2.43,0.57,4.21c0,1.76-0.19,3.16-0.57,4.2s-0.95,1.78-1.7,2.22
				C51.83,114.38,50.91,114.6,49.82,114.6z M49.82,113.1c0.45,0,0.88-0.16,1.27-0.49c0.39-0.33,0.71-0.9,0.95-1.7
				c0.25-0.81,0.37-1.94,0.37-3.39s-0.12-2.59-0.37-3.39c-0.25-0.81-0.56-1.38-0.95-1.7c-0.39-0.33-0.81-0.49-1.27-0.49
				c-0.45,0-0.88,0.16-1.27,0.49c-0.39,0.33-0.71,0.9-0.95,1.7c-0.25,0.81-0.37,1.94-0.37,3.39s0.12,2.59,0.37,3.39
				c0.25,0.81,0.56,1.38,0.95,1.7C48.94,112.94,49.36,113.1,49.82,113.1z"/>
			<path class="st3" d="M57.86,114.33V100.7h2.04l0.14,0.82h0.14c0.35-0.34,0.77-0.61,1.28-0.8s1.04-0.29,1.58-0.29
				c0.87,0,1.62,0.11,2.25,0.34c0.63,0.23,1.11,0.64,1.46,1.23s0.52,1.43,0.52,2.52v9.82h-2.45v-9.82c0-0.96-0.25-1.61-0.74-1.95
				c-0.49-0.34-1.11-0.5-1.85-0.5c-0.35,0-0.7,0.05-1.06,0.16s-0.65,0.24-0.85,0.38v11.72C60.32,114.33,57.86,114.33,57.86,114.33z"
				/>
			<path class="st3" d="M75.04,114.6c-0.73,0-1.38-0.12-1.95-0.37s-1.03-0.7-1.36-1.36s-0.5-1.63-0.5-2.9v-7.23h-1.64v-1.77h1.64
				V97.7h2.45v3.27h3.82v1.23c-0.4,0.13-0.91,0.25-1.53,0.37c-0.62,0.12-1.2,0.18-1.74,0.18h-0.55v7.23c0,0.82,0.1,1.44,0.3,1.87
				c0.2,0.43,0.45,0.72,0.75,0.89c0.3,0.16,0.59,0.25,0.86,0.25h2.45v1.09c-0.22,0.09-0.51,0.18-0.89,0.26
				c-0.37,0.08-0.75,0.15-1.13,0.2S75.31,114.6,75.04,114.6z"/>
			<path class="st3" d="M83.49,114.6c-0.82,0-1.53-0.12-2.14-0.35c-0.61-0.24-1.09-0.67-1.43-1.29c-0.35-0.63-0.52-1.53-0.52-2.71
				c0-1.15,0.17-2.02,0.52-2.63c0.34-0.61,0.82-1.03,1.43-1.25c0.61-0.23,1.32-0.34,2.14-0.34c0.42,0,0.88,0.03,1.38,0.08
				s0.95,0.12,1.35,0.19v-1.23c0-1.24-0.26-2.04-0.78-2.43s-1.26-0.57-2.22-0.57h-2.73v-1.09c0.42-0.15,0.93-0.27,1.54-0.38
				s1.19-0.16,1.73-0.16c1.09,0,2,0.12,2.73,0.37s1.27,0.7,1.64,1.36s0.55,1.63,0.55,2.9v9.27h-2.04l-0.14-0.82h-0.14
				c-0.35,0.35-0.77,0.61-1.28,0.8S84.04,114.6,83.49,114.6z M84.31,112.97c0.35,0,0.7-0.06,1.06-0.18s0.65-0.24,0.85-0.37v-4.77
				h-1.91c-0.45,0-0.87,0.07-1.24,0.22s-0.67,0.4-0.89,0.78c-0.22,0.37-0.33,0.9-0.33,1.6c0,0.73,0.11,1.29,0.33,1.68
				s0.51,0.66,0.89,0.82C83.44,112.89,83.85,112.97,84.31,112.97z"/>
			<path class="st3" d="M96.99,114.6c-1.22,0-2.22-0.21-3.01-0.64s-1.37-1.15-1.75-2.18c-0.37-1.03-0.56-2.45-0.56-4.27
				s0.18-3.24,0.55-4.27c0.36-1.03,0.92-1.75,1.68-2.18c0.75-0.43,1.69-0.64,2.82-0.64c0.55,0,1.13,0.05,1.75,0.16
				s1.13,0.24,1.53,0.38v1.09h-2.73c-0.67,0-1.25,0.15-1.72,0.45c-0.47,0.3-0.83,0.85-1.06,1.64s-0.35,1.91-0.35,3.37
				c0,1.45,0.12,2.58,0.37,3.37s0.62,1.34,1.13,1.64c0.51,0.3,1.15,0.45,1.91,0.45h2.73v1.09c-0.4,0.13-0.91,0.25-1.53,0.37
				C98.11,114.54,97.53,114.6,96.99,114.6z"/>
			<path class="st3" d="M106.67,114.6c-0.73,0-1.38-0.12-1.95-0.37s-1.03-0.7-1.36-1.36s-0.5-1.63-0.5-2.9v-7.23h-1.64v-1.77h1.64
				V97.7h2.45v3.27h3.82v1.23c-0.4,0.13-0.91,0.25-1.53,0.37c-0.62,0.12-1.2,0.18-1.74,0.18h-0.55v7.23c0,0.82,0.1,1.44,0.3,1.87
				c0.2,0.43,0.45,0.72,0.75,0.89c0.3,0.16,0.59,0.25,0.86,0.25h2.45v1.09c-0.22,0.09-0.51,0.18-0.89,0.26
				c-0.37,0.08-0.75,0.15-1.13,0.2S106.94,114.6,106.67,114.6z"/>
			<path class="st3" d="M114.44,114.6c-0.54,0-1.12-0.06-1.73-0.18s-1.12-0.24-1.54-0.37v-1.09h2.73c1.24,0,2.14-0.16,2.7-0.48
				s0.85-0.89,0.85-1.7c0-0.55-0.15-0.98-0.46-1.31c-0.31-0.33-0.7-0.6-1.19-0.83c-0.48-0.23-1-0.44-1.55-0.65s-1.07-0.47-1.55-0.79
				s-0.88-0.73-1.19-1.24c-0.31-0.51-0.46-1.17-0.46-1.99c0-1.36,0.41-2.29,1.23-2.79s2.04-0.75,3.68-0.75
				c0.54,0,1.13,0.05,1.74,0.16c0.62,0.11,1.13,0.24,1.53,0.38v1.09h-2.73c-0.95,0-1.68,0.15-2.21,0.44s-0.79,0.78-0.79,1.47
				c0,0.55,0.15,0.98,0.46,1.31s0.7,0.6,1.19,0.83c0.48,0.23,1,0.45,1.55,0.65c0.55,0.21,1.07,0.47,1.55,0.79s0.88,0.73,1.19,1.24
				s0.46,1.17,0.46,1.99c0,1-0.19,1.78-0.57,2.33s-0.97,0.94-1.77,1.16C116.74,114.49,115.71,114.6,114.44,114.6z"/>
			<path class="st3" d="M132.98,114.6c-1.36,0-2.43-0.42-3.2-1.27s-1.16-2.15-1.16-3.91c0-0.82,0.06-1.6,0.18-2.36
				s0.24-1.33,0.37-1.73h1.91v4.09c0,0.95,0.1,1.66,0.3,2.15s0.45,0.82,0.75,1c0.3,0.17,0.59,0.26,0.86,0.26
				c0.36,0,0.68-0.08,0.95-0.23s0.55-0.44,0.82-0.85c0.27-0.41,0.59-1,0.95-1.79c-0.98-1.4-1.79-2.6-2.41-3.6
				c-0.63-1-1.11-1.87-1.46-2.62s-0.58-1.42-0.71-2.03s-0.19-1.22-0.19-1.84c0-1.64,0.4-2.86,1.2-3.68s1.94-1.23,3.44-1.23
				c0.82,0,1.6,0.05,2.36,0.16c0.75,0.11,1.33,0.24,1.73,0.38v1.23h-3.54c-0.82,0-1.48,0.27-1.98,0.8c-0.5,0.54-0.75,1.31-0.75,2.33
				c0,0.44,0.03,0.88,0.1,1.34c0.06,0.45,0.2,0.96,0.41,1.53c0.21,0.56,0.54,1.22,0.98,1.98c0.44,0.75,1.04,1.64,1.79,2.66l1.5-3.68
				h2.45l-2.45,6l3.27,4.64h-2.73l-1.5-2.18c-0.31,0.55-0.64,1-0.98,1.36c-0.35,0.36-0.77,0.64-1.27,0.82S133.79,114.6,132.98,114.6
				z"/>
			<path class="st3" d="M155.06,114.6c-1.22,0-2.22-0.21-3.01-0.64s-1.37-1.15-1.75-2.18c-0.37-1.03-0.56-2.45-0.56-4.27
				s0.18-3.24,0.55-4.27c0.36-1.03,0.92-1.75,1.68-2.18c0.75-0.43,1.69-0.64,2.82-0.64c0.55,0,1.13,0.05,1.75,0.16
				s1.13,0.24,1.53,0.38v1.09h-2.73c-0.67,0-1.25,0.15-1.72,0.45c-0.47,0.3-0.83,0.85-1.06,1.64s-0.35,1.91-0.35,3.37
				c0,1.45,0.12,2.58,0.37,3.37s0.62,1.34,1.13,1.64c0.51,0.3,1.15,0.45,1.91,0.45h2.73v1.09c-0.4,0.13-0.91,0.25-1.53,0.37
				C156.19,114.54,155.61,114.6,155.06,114.6z"/>
			<path class="st3" d="M164.74,114.6c-1.09,0-2.01-0.22-2.75-0.67c-0.75-0.44-1.31-1.19-1.7-2.22c-0.39-1.04-0.59-2.44-0.59-4.2
				c0-1.78,0.19-3.19,0.59-4.21c0.39-1.03,0.96-1.76,1.7-2.21c0.75-0.45,1.66-0.67,2.75-0.67s2.01,0.22,2.77,0.67
				c0.75,0.45,1.32,1.18,1.7,2.21s0.57,2.43,0.57,4.21c0,1.76-0.19,3.16-0.57,4.2s-0.95,1.78-1.7,2.22
				C166.75,114.38,165.83,114.6,164.74,114.6z M164.74,113.1c0.45,0,0.88-0.16,1.27-0.49c0.39-0.33,0.71-0.9,0.95-1.7
				c0.25-0.81,0.37-1.94,0.37-3.39s-0.12-2.59-0.37-3.39c-0.25-0.81-0.56-1.38-0.95-1.7c-0.39-0.33-0.81-0.49-1.27-0.49
				c-0.45,0-0.88,0.16-1.27,0.49c-0.39,0.33-0.71,0.9-0.95,1.7c-0.25,0.81-0.37,1.94-0.37,3.39s0.12,2.59,0.37,3.39
				c0.25,0.81,0.56,1.38,0.95,1.7C163.86,112.94,164.29,113.1,164.74,113.1z"/>
			<path class="st3" d="M172.78,114.33V100.7h2.04l0.14,0.82h0.14c0.35-0.34,0.73-0.61,1.16-0.8c0.43-0.19,0.95-0.29,1.57-0.29
				c0.62,0,1.19,0.09,1.73,0.26c0.54,0.17,0.98,0.49,1.32,0.94c0.45-0.4,1.01-0.7,1.66-0.9c0.65-0.2,1.22-0.3,1.69-0.3
				c0.73,0,1.38,0.11,1.95,0.34c0.57,0.23,1.03,0.64,1.36,1.23c0.34,0.59,0.5,1.43,0.5,2.52v9.82h-2.45v-9.82
				c0-0.64-0.1-1.13-0.31-1.49c-0.21-0.35-0.48-0.6-0.82-0.75c-0.34-0.15-0.69-0.22-1.05-0.22c-0.4,0-0.79,0.05-1.17,0.16
				s-0.67,0.24-0.87,0.38c0.07,0.2,0.14,0.46,0.19,0.79s0.08,0.7,0.08,1.12v9.82h-2.45v-9.82c0-0.64-0.1-1.13-0.31-1.49
				c-0.21-0.35-0.48-0.6-0.82-0.75c-0.34-0.15-0.69-0.22-1.05-0.22c-0.35,0-0.68,0.05-1,0.16s-0.58,0.24-0.78,0.38v11.72h-2.45
				V114.33z"/>
			<path class="st3" d="M191.6,119.78V100.7h2.04l0.14,0.82h0.14c0.35-0.34,0.77-0.61,1.28-0.8s1.04-0.29,1.58-0.29
				c0.96,0,1.78,0.21,2.44,0.64s1.17,1.15,1.53,2.18c0.35,1.03,0.53,2.45,0.53,4.27s-0.18,3.24-0.53,4.27s-0.86,1.75-1.53,2.18
				c-0.66,0.43-1.48,0.64-2.44,0.64c-0.55,0-1.03-0.06-1.46-0.19c-0.43-0.13-0.85-0.29-1.27-0.49v5.86L191.6,119.78L191.6,119.78z
				 M195.96,112.97c0.6,0,1.11-0.15,1.54-0.45c0.43-0.3,0.75-0.85,0.98-1.64s0.34-1.91,0.34-3.37c0-1.45-0.11-2.58-0.34-3.37
				s-0.55-1.34-0.98-1.64s-0.94-0.45-1.54-0.45c-0.35,0-0.7,0.05-1.06,0.16s-0.65,0.24-0.85,0.38v9.82c0.2,0.13,0.48,0.25,0.85,0.37
				C195.26,112.91,195.61,112.97,195.96,112.97z"/>
			<path class="st3" d="M207.82,114.6c-0.82,0-1.53-0.12-2.14-0.35c-0.61-0.24-1.09-0.67-1.43-1.29c-0.35-0.63-0.52-1.53-0.52-2.71
				c0-1.15,0.17-2.02,0.52-2.63c0.34-0.61,0.82-1.03,1.43-1.25c0.61-0.23,1.32-0.34,2.14-0.34c0.42,0,0.88,0.03,1.38,0.08
				s0.95,0.12,1.35,0.19v-1.23c0-1.24-0.26-2.04-0.78-2.43s-1.26-0.57-2.22-0.57h-2.73v-1.09c0.42-0.15,0.93-0.27,1.54-0.38
				s1.19-0.16,1.73-0.16c1.09,0,2,0.12,2.73,0.37s1.27,0.7,1.64,1.36s0.55,1.63,0.55,2.9v9.27h-2.04l-0.14-0.82h-0.14
				c-0.35,0.35-0.77,0.61-1.28,0.8S208.36,114.6,207.82,114.6z M208.64,112.97c0.35,0,0.7-0.06,1.06-0.18s0.65-0.24,0.85-0.37v-4.77
				h-1.91c-0.45,0-0.87,0.07-1.24,0.22s-0.67,0.4-0.89,0.78c-0.22,0.37-0.33,0.9-0.33,1.6c0,0.73,0.11,1.29,0.33,1.68
				s0.51,0.66,0.89,0.82C207.77,112.89,208.18,112.97,208.64,112.97z"/>
			<path class="st3" d="M216.54,114.33V100.7h2.04l0.14,0.82h0.14c0.35-0.34,0.77-0.61,1.28-0.8s1.04-0.29,1.58-0.29
				c0.87,0,1.62,0.11,2.25,0.34c0.63,0.23,1.11,0.64,1.46,1.23c0.35,0.59,0.52,1.43,0.52,2.52v9.82h-2.45v-9.82
				c0-0.96-0.25-1.61-0.74-1.95s-1.11-0.5-1.85-0.5c-0.35,0-0.7,0.05-1.06,0.16s-0.65,0.24-0.85,0.38v11.72
				C219,114.33,216.54,114.33,216.54,114.33z"/>
			<path class="st3" d="M229.63,98.79v-3h2.45v3H229.63z M229.63,114.33V100.7h2.45v13.63
				C232.08,114.33,229.63,114.33,229.63,114.33z"/>
			<path class="st3" d="M240.94,114.6c-1.36,0-2.46-0.21-3.3-0.64s-1.45-1.15-1.84-2.18s-0.59-2.45-0.59-4.27s0.18-3.24,0.55-4.27
				c0.36-1.03,0.9-1.75,1.61-2.18s1.58-0.64,2.62-0.64c1.05,0,1.93,0.21,2.63,0.64c0.7,0.43,1.23,1.15,1.6,2.18
				c0.36,1.03,0.54,2.45,0.54,4.27v0.82h-7.09c0,1.76,0.29,2.98,0.89,3.64s1.57,1,2.93,1h2.73v1.09c-0.4,0.13-0.91,0.25-1.53,0.37
				C242.07,114.54,241.49,114.6,240.94,114.6z M237.67,106.7h4.63c0-1.24-0.11-2.2-0.33-2.89s-0.5-1.18-0.84-1.46
				c-0.35-0.28-0.73-0.42-1.15-0.42c-0.4,0-0.78,0.14-1.13,0.42s-0.64,0.77-0.86,1.46C237.78,104.5,237.67,105.46,237.67,106.7z"/>
			<path class="st3" d="M250.35,114.6c-0.54,0-1.12-0.06-1.73-0.18s-1.12-0.24-1.54-0.37v-1.09h2.73c1.24,0,2.14-0.16,2.7-0.48
				s0.85-0.89,0.85-1.7c0-0.55-0.16-0.98-0.46-1.31c-0.31-0.33-0.71-0.6-1.19-0.83s-1-0.44-1.55-0.65s-1.07-0.47-1.55-0.79
				s-0.88-0.73-1.19-1.24c-0.31-0.51-0.46-1.17-0.46-1.99c0-1.36,0.41-2.29,1.23-2.79c0.82-0.5,2.04-0.75,3.68-0.75
				c0.54,0,1.13,0.05,1.75,0.16s1.13,0.24,1.53,0.38v1.09h-2.73c-0.95,0-1.68,0.15-2.21,0.44c-0.53,0.29-0.79,0.78-0.79,1.47
				c0,0.55,0.15,0.98,0.46,1.31c0.31,0.33,0.7,0.6,1.19,0.83c0.48,0.23,1,0.45,1.55,0.65c0.55,0.21,1.07,0.47,1.55,0.79
				s0.88,0.73,1.19,1.24c0.31,0.51,0.46,1.17,0.46,1.99c0,1-0.19,1.78-0.57,2.33s-0.97,0.94-1.77,1.16
				C252.66,114.49,251.62,114.6,250.35,114.6z"/>
		</g>
	</g>
</g>
<g id="Слой_6" class="st0">
	<g class="st1">
		<path d="M35.05,36.85H20.5V22.3h14.55V36.85z M35.05,119.67H20.5v-68.2h14.55V119.67z"/>
		<path d="M83.77,119.67H70.15l-0.93-3.92c-2.76,2.62-6.02,3.92-9.77,3.92c-4.8,0-8.54-2.14-11.2-6.42
			c-2.28-3.61-3.42-7.96-3.42-13.05V70.95c0-4.95,1.14-9.27,3.42-12.98c2.71-4.33,6.37-6.49,10.99-6.49c3.85,0,7.18,1.31,9.99,3.92
			V22.3h14.55v97.37H83.77z M69.22,105.11V66.04c0-1.29-0.5-2.42-1.51-3.4c-1.01-0.98-2.16-1.47-3.45-1.47
			c-1.29,0-2.43,0.49-3.41,1.47s-1.47,2.11-1.47,3.4v39.06c0,1.29,0.49,2.42,1.47,3.4s2.12,1.47,3.41,1.47
			c1.34,0,2.5-0.48,3.48-1.43S69.22,106.44,69.22,105.11z"/>
		<path d="M108.1,70.95H93.55V56.4h14.55C108.1,56.4,108.1,70.95,108.1,70.95z M108.1,119.67H93.55v-14.62h14.55
			C108.1,105.05,108.1,119.67,108.1,119.67z"/>
		<path d="M156.83,100.2c0,5.38-1.9,9.96-5.71,13.77c-3.81,3.81-8.39,5.71-13.77,5.71c-5.42,0-10.02-1.89-13.8-5.67
			s-5.67-8.38-5.67-13.8V41.77c0-5.42,1.89-10.02,5.67-13.8s8.38-5.67,13.8-5.67c5.28,0,9.84,1.93,13.7,5.78
			c3.85,3.85,5.78,8.42,5.78,13.7v4.85h-14.55c0-0.67,0.05-1.7,0.14-3.1c0.09-1.4,0.14-2.48,0.14-3.25c0-5.52-1.75-8.28-5.24-8.28
			c-1.34,0-2.49,0.48-3.45,1.43c-0.96,0.95-1.44,2.09-1.44,3.43v68.26c0,3.24,1.63,4.86,4.89,4.86c3.5,0,5.24-2.75,5.24-8.24
			c0-0.91-0.05-2.09-0.14-3.55c-0.1-1.46-0.14-2.4-0.14-2.83h14.55L156.83,100.2L156.83,100.2z"/>
		<path d="M205.55,119.67H191V80.72c0-1.28-0.5-2.41-1.51-3.39c-1.01-0.97-2.16-1.46-3.45-1.46h-4.89v43.8H166.6V22.3h19.48
			c5.28,0,9.84,1.93,13.7,5.78c3.85,3.85,5.78,8.42,5.78,13.7V56.4c0,5.75-2.19,10.61-6.56,14.55c4.38,3.95,6.56,8.82,6.56,14.62
			L205.55,119.67L205.55,119.67z M191,61.31V36.86c0-1.29-0.5-2.42-1.51-3.4c-1.01-0.98-2.16-1.47-3.45-1.47h-4.89v34.17h4.89
			c1.29,0,2.44-0.49,3.45-1.46C190.49,63.73,191,62.6,191,61.31z"/>
		<path d="M278.67,119.67h-14.55V36.85c0-1.28-0.49-2.41-1.47-3.39c-0.98-0.97-2.12-1.46-3.41-1.46c-1.34,0-2.5,0.48-3.49,1.43
			c-0.98,0.95-1.47,2.09-1.47,3.42v82.82h-14.55V36.85c0-1.28-0.5-2.41-1.51-3.39c-1.01-0.97-2.16-1.46-3.45-1.46
			c-1.34,0-2.49,0.48-3.45,1.43c-0.96,0.95-1.44,2.09-1.44,3.42v82.82h-14.55v-77.9c0-5.37,1.76-9.96,5.28-13.77
			c3.52-3.8,7.94-5.71,13.27-5.71c5.23,0,9.61,1.74,13.13,5.21c3.52-3.47,7.89-5.21,13.13-5.21c5.28,0,9.69,1.91,13.23,5.74
			s5.31,8.41,5.31,13.73v77.91H278.67z"/>
	</g>
</g>
<g id="Слой_7" class="st0">
	<g class="st1">
		<path class="st3" d="M35.05,36.85H20.5V22.3h14.55V36.85z M35.05,119.67H20.5v-68.2h14.55V119.67z"/>
		<path class="st3" d="M83.77,119.67H70.15l-0.93-3.92c-2.76,2.62-6.02,3.92-9.77,3.92c-4.8,0-8.54-2.14-11.2-6.42
			c-2.28-3.61-3.42-7.96-3.42-13.05V70.95c0-4.95,1.14-9.27,3.42-12.98c2.71-4.33,6.37-6.49,10.99-6.49c3.85,0,7.18,1.31,9.99,3.92
			V22.3h14.55v97.37H83.77z M69.22,105.11V66.04c0-1.29-0.5-2.42-1.51-3.4c-1.01-0.98-2.16-1.47-3.45-1.47
			c-1.29,0-2.43,0.49-3.41,1.47s-1.47,2.11-1.47,3.4v39.06c0,1.29,0.49,2.42,1.47,3.4s2.12,1.47,3.41,1.47
			c1.34,0,2.5-0.48,3.48-1.43C68.73,107.59,69.22,106.44,69.22,105.11z"/>
		<path class="st3" d="M108.1,70.95H93.55V56.4h14.55C108.1,56.4,108.1,70.95,108.1,70.95z M108.1,119.67H93.55v-14.62h14.55
			C108.1,105.05,108.1,119.67,108.1,119.67z"/>
		<path class="st3" d="M156.83,100.2c0,5.38-1.9,9.96-5.71,13.77c-3.81,3.81-8.39,5.71-13.77,5.71c-5.42,0-10.02-1.89-13.8-5.67
			s-5.67-8.38-5.67-13.8V41.77c0-5.42,1.89-10.02,5.67-13.8s8.38-5.67,13.8-5.67c5.28,0,9.84,1.93,13.7,5.78
			c3.85,3.85,5.78,8.42,5.78,13.7v4.85h-14.55c0-0.67,0.05-1.7,0.14-3.1c0.09-1.4,0.14-2.48,0.14-3.25c0-5.52-1.75-8.28-5.25-8.28
			c-1.34,0-2.49,0.48-3.45,1.43c-0.96,0.95-1.44,2.09-1.44,3.43v68.26c0,3.24,1.63,4.86,4.89,4.86c3.5,0,5.25-2.75,5.25-8.24
			c0-0.91-0.05-2.09-0.14-3.55c-0.1-1.46-0.14-2.4-0.14-2.83h14.55L156.83,100.2L156.83,100.2z"/>
		<path class="st3" d="M205.55,119.67H191V80.72c0-1.28-0.5-2.41-1.51-3.39c-1.01-0.97-2.16-1.46-3.45-1.46h-4.89v43.8H166.6V22.3
			h19.48c5.28,0,9.84,1.93,13.7,5.78c3.85,3.85,5.78,8.42,5.78,13.7V56.4c0,5.75-2.19,10.61-6.56,14.55
			c4.38,3.95,6.56,8.82,6.56,14.62L205.55,119.67L205.55,119.67z M191,61.31V36.86c0-1.29-0.5-2.42-1.51-3.4
			c-1.01-0.98-2.16-1.47-3.45-1.47h-4.89v34.17h4.89c1.29,0,2.44-0.49,3.45-1.46C190.49,63.73,191,62.6,191,61.31z"/>
		<path class="st3" d="M278.67,119.67h-14.55V36.85c0-1.28-0.49-2.41-1.47-3.39c-0.98-0.97-2.12-1.46-3.41-1.46
			c-1.34,0-2.5,0.48-3.49,1.43c-0.98,0.95-1.47,2.09-1.47,3.42v82.82h-14.55V36.85c0-1.28-0.5-2.41-1.51-3.39
			c-1.01-0.97-2.16-1.46-3.45-1.46c-1.34,0-2.49,0.48-3.45,1.43c-0.96,0.95-1.44,2.09-1.44,3.42v82.82h-14.55v-77.9
			c0-5.37,1.76-9.96,5.28-13.77s7.94-5.71,13.27-5.71c5.23,0,9.61,1.74,13.13,5.21c3.52-3.47,7.89-5.21,13.13-5.21
			c5.28,0,9.69,1.91,13.23,5.74s5.31,8.41,5.31,13.73v77.91H278.67z"/>
	</g>
</g>
<g id="Слой_8" class="st0">
	<g class="st1">
		<g>
			<path class="st4" d="M38.98,21.75c4.33,2.96,12.88,9.06,17.51,11.91c0.42,0.26,0.46-0.1,0.43-0.24c-0.5-1.89-1.5-5.72-1.5-5.72
				s2.97,0.56,5.78,0c3.04-0.61,5.56-2.39,6.81-4.96c1.51-3.1,0.57-9.62-1.82-13.18c-0.15-0.22-0.42-0.38-0.36,0.04
				c0.23,1.77,0.49,6.67-2.43,8.7c-3.6,2.51-7.73,2.53-9.91,2.12c0,0-1.19-4.09-1.59-5.45c-0.04-0.15-0.18-0.6-0.52-0.43
				c-2.08,1.08-9.84,5.34-12.5,6.63C38.63,21.28,38.8,21.62,38.98,21.75z"/>
			<path class="st4" d="M47.46,30.65c-0.09-0.53-0.25-0.72-0.57-0.53c-0.31,0.19-4.12,2.01-4.52,2.11c-0.41,0.09-0.6,0-0.82-0.35
				c-0.05-0.16-2.02-2.2-5.66-5.25c-3.79-3.18-9.3-6.6-17.6-6.91c-7.87-0.3-16.21,3.27-16.84,3.46c-0.63,0.19-0.38,0.63,0.25,0.57
				c3.46-0.57,12.1-0.84,18.6,1.63c8.11,3.08,14.49,10.46,14.49,10.46s-6,2.99-6.38,3.14c-0.38,0.16-0.47,0.41-0.06,0.69
				s20.49,9.68,20.93,9.9s0.85,0.38,0.75-0.35C49.94,48.5,47.55,31.18,47.46,30.65z"/>
			<path class="st4" d="M81.38,79c-0.67-0.5-6.65-5.6-11.02-13.07c-4.32-7.37-3.98-16.59-3.94-17.05s0.34-0.42,0.54-0.25
				c0.21,0.17,5.57,3.44,6.08,3.81c0.5,0.38,0.96,0.13,0.71-0.29c-0.25-0.42-7-17.47-7.21-18.1c-0.21-0.63-0.38-0.63-0.71-0.5
				c-0.34,0.13-13.45,5.53-13.87,5.66s-0.63,0.5-0.04,0.71c0,0,5.53,3.23,5.91,3.44s0.38,0.5,0.38,0.5s-1.05,5.53,0,10.35
				c1.01,4.61,3.35,10.47,9.01,16.01c5.57,5.45,13.03,8.92,13.87,9.22S81.63,79.13,81.38,79z"/>
		</g>
		<g>
			<g>
				<path class="st5" d="M88.79,39.32c-0.29-0.29-14.33-11.48-14.66-11.73c-0.32-0.24-0.64-0.29-0.63,0.5c0,0.04,0,0.08,0,0.13
					c0,0-0.88,12.86-0.92,13.66s0.13,0.75,0.42,0.71s5.24-0.96,5.24-0.96s1.63,3.69,1.89,4.57c0.25,0.88,2.09,6.2,0.71,11.14
					s-6.2,8.04-6.58,8.25c-0.38,0.21-0.17,0.71,0.25,0.5c4.65-0.8,8.97-2.43,11.52-5.82c2.56-3.39,2.3-9.05,1.26-13.16
					c-1.05-4.11-2.56-6.45-2.56-6.45s3.6-0.46,3.98-0.5C89.09,40.12,89.09,39.62,88.79,39.32z"/>
			</g>
			<g>
				<path class="st5" d="M39.14,48.5c-0.25-0.34-0.67-0.67-0.75-0.13c-0.08,0.54-1.13,7.83-1.13,7.83s-7.5-3.18-12.32-8.25
					c-9.64-10.14-8.3-19.27-8.3-19.86s-0.34-0.92-0.67-0.34c-0.34,0.59-2.18,5.03-2.26,11.06c-0.12,8.8,3.44,14.25,8.3,19.44
					c4.86,5.2,13.95,8.25,13.95,8.25c-0.04,0.34-1.13,7.33-1.17,8.04c-0.04,0.71,0.04,1.05,0.38,0.92
					c0.34-0.13,19.94-7.83,20.4-8.04s0.54-0.5,0.21-0.88C55.44,66.18,39.4,48.83,39.14,48.5z"/>
			</g>
			<g>
				<path class="st5" d="M52.61,7.27c-4.15-2.51-8.36-4.03-14.27-3.96c-5.22,0.06-7.48,1.89-7.48,1.89s-4.21-4.02-4.59-4.34
					c-0.38-0.31-0.82-0.38-0.88,0.13c-0.06,0.5-1.82,13.32-1.82,13.32c-0.06,0.57-0.38,1.19,0.38,1.19c0.75,0,16.28,0.94,18.67,1.07
					c0,0,0.82-0.06,0.44-0.44c-0.38-0.38-4.27-4.21-5.28-4.84c0,0,3.02-1.89,7.6-1.89s10.68,1.95,16.03,5.72
					c0.25,0.19,0.82,0.25,0.44-0.19C61.48,14.5,56.76,9.78,52.61,7.27z"/>
			</g>
		</g>
	</g>
	<path class="st6" d="M74.09,28.33c2.01,1.6,12.65,10.07,14.12,11.29c-1.06,0.13-3.56,0.45-3.56,0.45l-0.94,0.12l0.51,0.8
		c0.01,0.02,1.47,2.31,2.48,6.28c1.02,4.01,1.26,9.44-1.15,12.65c-1.95,2.59-5.15,4.34-9.76,5.33c1.68-1.3,4.58-4.01,5.62-7.74
		c0.88-3.16,0.67-6.94-0.64-11.23l-0.07-0.24c-0.26-0.91-1.85-4.49-1.91-4.65l-0.19-0.43l-0.47,0.09c-1.68,0.31-4.11,0.76-4.95,0.91
		c0-0.01,0-0.03,0-0.04C73.22,41.16,74.02,29.35,74.09,28.33 M73.78,27.44c-0.17,0-0.29,0.17-0.29,0.66c0,0.04,0,0.08,0,0.13
		c0,0-0.88,12.86-0.92,13.66c-0.03,0.62,0.06,0.73,0.24,0.73c0.05,0,0.11-0.01,0.18-0.02c0.29-0.04,5.24-0.96,5.24-0.96
		s1.63,3.69,1.89,4.57s2.09,6.2,0.71,11.14s-6.2,8.04-6.58,8.25c-0.31,0.17-0.22,0.55,0.06,0.55c0.06,0,0.12-0.02,0.19-0.05
		c4.65-0.8,8.97-2.43,11.52-5.82s2.3-9.05,1.26-13.16c-1.05-4.11-2.56-6.45-2.56-6.45s3.6-0.46,3.98-0.5
		c0.38-0.04,0.38-0.54,0.08-0.84c-0.29-0.29-14.33-11.48-14.66-11.73C74.01,27.5,73.89,27.44,73.78,27.44L73.78,27.44z"/>
	<path class="st6" d="M15.99,29.27c-0.05,3.67,0.96,11.16,8.51,19.1c4.85,5.11,12.21,8.26,12.52,8.39l0.72,0.3l0.11-0.77
		c0.01-0.06,0.76-5.26,1.04-7.18c0.98,1.09,5.08,5.54,12.3,13.35c2.1,2.27,3.79,4.1,4.1,4.44c-1.02,0.43-17.07,6.73-19.91,7.85
		c0-0.05,0-0.1,0.01-0.16c0.03-0.49,0.65-4.56,0.95-6.52c0.12-0.82,0.21-1.4,0.22-1.49l0.06-0.49l-0.46-0.16
		c-0.09-0.03-9.01-3.07-13.71-8.1c-4.97-5.31-8.25-10.58-8.13-19.02C14.37,34.56,15.35,31.05,15.99,29.27 M16.33,27.45
		c-0.11,0-0.23,0.09-0.35,0.31c-0.34,0.59-2.18,5.03-2.26,11.06c-0.12,8.8,3.44,14.25,8.3,19.44c4.86,5.2,13.95,8.25,13.95,8.25
		c-0.04,0.34-1.13,7.33-1.17,8.04c-0.04,0.61,0.02,0.95,0.25,0.95c0.04,0,0.08-0.01,0.12-0.03c0.34-0.13,19.94-7.83,20.4-8.04
		s0.54-0.5,0.21-0.88C55.44,66.18,39.4,48.83,39.14,48.5c-0.16-0.21-0.37-0.41-0.54-0.41c-0.1,0-0.18,0.08-0.22,0.29
		c-0.08,0.54-1.13,7.83-1.13,7.83s-7.5-3.18-12.32-8.25c-9.64-10.14-8.3-19.27-8.3-19.86C16.64,27.72,16.51,27.45,16.33,27.45
		L16.33,27.45z"/>
	<g class="st1">
		<path class="st7" d="M25.96,1.37c0.47,0.42,2.9,2.73,4.5,4.26l0.38,0.36l0.41-0.33c0.02-0.02,2.16-1.69,7.11-1.75h0.39
			c5.02,0,9.08,1.16,13.56,3.87c2.18,1.32,4.55,3.29,6.32,4.89c-4.39-2.43-9.22-3.87-13.24-3.87c-4.71,0-7.79,1.9-7.92,1.98
			l-0.81,0.51l0.81,0.51c0.71,0.44,3.21,2.84,4.55,4.14c-1.22-0.07-3.47-0.2-5.98-0.35c-6.18-0.36-11.02-0.65-11.95-0.68
			c0.01-0.05,0.02-0.1,0.03-0.14c0.03-0.13,0.05-0.26,0.06-0.38C24.24,13.91,25.68,3.42,25.96,1.37 M25.74,0.62
			c-0.17,0-0.31,0.11-0.34,0.37c-0.06,0.5-1.82,13.32-1.82,13.32c-0.06,0.57-0.38,1.19,0.38,1.19c0.75,0,16.28,0.94,18.67,1.07
			c0,0,0.82-0.06,0.44-0.44c-0.38-0.38-4.27-4.21-5.28-4.84c0,0,3.02-1.89,7.6-1.89s10.68,1.95,16.03,5.72
			c0.11,0.08,0.29,0.14,0.41,0.14c0.15,0,0.23-0.09,0.03-0.33c-0.38-0.44-5.09-5.15-9.24-7.67C48.57,4.8,44.45,3.3,38.75,3.3
			c-0.13,0-0.26,0-0.4,0c-5.22,0.06-7.48,1.89-7.48,1.89s-4.21-4.02-4.59-4.34C26.1,0.71,25.9,0.62,25.74,0.62L25.74,0.62z"/>
	</g>
</g>
<g id="Слой_8__x28_копия_x29_" class="st0">
	<g class="st1">
		<path class="st4" d="M65.83,9.59c0.23,1.77,0.49,6.67-2.43,8.7c-3.6,2.51-7.73,2.53-9.91,2.12c0,0-1.19-4.09-1.59-5.45
			c-0.04-0.15-0.18-0.6-0.52-0.43c-2.08,1.08-9.84,5.34-12.5,6.63c-0.26,0.13-0.09,0.46,0.1,0.59c4.33,2.96,12.88,9.06,17.51,11.91
			c0.42,0.26,0.46-0.1,0.43-0.24c-0.5-1.89-1.5-5.72-1.5-5.72s2.97,0.56,5.78,0c3.04-0.61,5.56-2.39,6.81-4.96
			c1.51-3.1,0.57-9.62-1.82-13.18C66.04,9.33,65.78,9.17,65.83,9.59z"/>
		<path class="st4" d="M41.55,31.88c0.22,0.35,0.41,0.44,0.82,0.35s4.21-1.92,4.52-2.11s0.47,0,0.57,0.53
			c0.09,0.53,2.48,17.85,2.58,18.57c0.09,0.72-0.31,0.57-0.75,0.35s-20.52-9.62-20.93-9.9c-0.41-0.28-0.31-0.53,0.06-0.69
			c0.38-0.16,6.38-3.14,6.38-3.14s-6.38-7.38-14.49-10.46c-6.5-2.47-15.15-2.2-18.6-1.63c-0.63,0.06-0.88-0.38-0.25-0.57
			s8.97-3.75,16.84-3.46c8.3,0.31,13.81,3.74,17.6,6.91C39.53,29.68,41.5,31.71,41.55,31.88z"/>
		<path class="st4" d="M51.92,39.91c-0.59-0.21-0.38-0.59,0.04-0.71c0.42-0.13,13.53-5.53,13.87-5.66c0.34-0.13,0.5-0.13,0.71,0.5
			s6.96,17.68,7.21,18.1s-0.21,0.67-0.71,0.29c-0.5-0.38-5.87-3.65-6.08-3.81s-0.5-0.21-0.54,0.25s-0.38,9.68,3.94,17.05
			C74.73,73.4,80.71,78.5,81.38,79c0.25,0.13,0.54,0.71-0.29,0.42c-0.84-0.29-8.3-3.77-13.87-9.22c-5.66-5.53-8-11.4-9.01-16.01
			c-1.05-4.82,0-10.35,0-10.35s0-0.29-0.38-0.5C57.45,43.14,51.92,39.91,51.92,39.91z"/>
		<path class="st3" d="M73.5,28.22c0-0.04,0-0.09,0-0.13c-0.01-0.79,0.31-0.74,0.63-0.5c0.34,0.25,14.37,11.44,14.66,11.73
			c0.29,0.29,0.29,0.8-0.08,0.84s-3.98,0.5-3.98,0.5s1.51,2.35,2.56,6.45s1.3,9.76-1.26,13.16c-2.56,3.39-6.87,5.03-11.52,5.82
			c-0.42,0.21-0.63-0.29-0.25-0.5s5.2-3.31,6.58-8.25s-0.46-10.26-0.71-11.14s-1.89-4.57-1.89-4.57S73.3,42.55,73,42.59
			c-0.29,0.04-0.46,0.08-0.42-0.71C72.62,41.08,73.5,28.22,73.5,28.22z"/>
		<path class="st3" d="M37.26,56.21c0,0,1.05-7.29,1.13-7.83s0.5-0.21,0.75,0.13s16.3,17.68,16.63,18.06s0.25,0.67-0.21,0.88
			s-20.07,7.92-20.4,8.04c-0.34,0.13-0.42-0.21-0.38-0.92s1.13-7.71,1.17-8.04c0,0-9.09-3.06-13.95-8.25s-8.42-10.64-8.3-19.44
			c0.08-6.03,1.93-10.47,2.26-11.06c0.33-0.59,0.67-0.25,0.67,0.34s-1.34,9.72,8.3,19.86C29.76,53.03,37.26,56.21,37.26,56.21z"/>
		<path class="st3" d="M23.58,14.31c-0.06,0.57-0.38,1.19,0.38,1.19s16.28,0.94,18.67,1.07c0,0,0.82-0.06,0.44-0.44
			c-0.38-0.38-4.27-4.21-5.28-4.84c0,0,3.02-1.89,7.6-1.89s10.68,1.95,16.03,5.72c0.25,0.19,0.82,0.25,0.44-0.19
			s-5.09-5.15-9.24-7.67S44.26,3.23,38.35,3.3c-5.22,0.06-7.48,1.89-7.48,1.89s-4.21-4.02-4.59-4.34s-0.82-0.38-0.88,0.13
			S23.58,14.31,23.58,14.31z"/>
	</g>
</g>
<g>
	<path class="st4" d="M65.83,9.56c0.23,1.77,0.49,6.67-2.43,8.7c-3.6,2.51-7.73,2.53-9.91,2.12c0,0-1.19-4.09-1.59-5.45
		c-0.04-0.15-0.18-0.6-0.52-0.43c-2.08,1.08-9.84,5.34-12.5,6.63c-0.26,0.13-0.09,0.46,0.1,0.59c4.33,2.96,12.88,9.06,17.51,11.91
		c0.42,0.26,0.46-0.1,0.43-0.24c-0.5-1.89-1.5-5.72-1.5-5.72s2.97,0.56,5.78,0c3.04-0.61,5.56-2.39,6.81-4.96
		c1.51-3.1,0.57-9.62-1.82-13.18C66.04,9.31,65.78,9.15,65.83,9.56z"/>
	<path class="st4" d="M41.55,31.85c0.22,0.35,0.41,0.44,0.82,0.35c0.41-0.09,4.21-1.92,4.52-2.11c0.31-0.19,0.47,0,0.57,0.53
		c0.09,0.53,2.48,17.85,2.58,18.57c0.09,0.72-0.31,0.57-0.75,0.35c-0.44-0.22-20.52-9.62-20.93-9.9c-0.41-0.28-0.31-0.53,0.06-0.69
		c0.38-0.16,6.38-3.14,6.38-3.14s-6.38-7.38-14.49-10.46c-6.5-2.47-15.15-2.2-18.6-1.63c-0.63,0.06-0.88-0.38-0.25-0.57
		c0.63-0.19,8.97-3.75,16.84-3.46c8.3,0.31,13.81,3.74,17.6,6.91C39.53,29.66,41.5,31.69,41.55,31.85z"/>
	<path class="st4" d="M51.92,39.89c-0.59-0.21-0.38-0.59,0.04-0.71s13.53-5.53,13.87-5.66c0.34-0.13,0.5-0.13,0.71,0.5
		c0.21,0.63,6.96,17.68,7.21,18.1s-0.21,0.67-0.71,0.29c-0.5-0.38-5.87-3.65-6.08-3.81s-0.5-0.21-0.54,0.25
		c-0.04,0.46-0.38,9.68,3.94,17.05c4.37,7.47,10.35,12.57,11.02,13.07c0.25,0.13,0.54,0.71-0.29,0.42
		c-0.84-0.29-8.3-3.77-13.87-9.22c-5.66-5.53-8-11.4-9.01-16.01c-1.05-4.82,0-10.35,0-10.35s0-0.29-0.38-0.5
		C57.45,43.11,51.92,39.89,51.92,39.89z"/>
	<path class="st3" d="M73.5,28.2c0-0.04,0-0.09,0-0.13c-0.01-0.79,0.31-0.74,0.63-0.5c0.34,0.25,14.37,11.44,14.66,11.73
		c0.29,0.29,0.29,0.8-0.08,0.84s-3.98,0.5-3.98,0.5s1.51,2.35,2.56,6.45s1.3,9.76-1.26,13.16s-6.87,5.03-11.52,5.82
		c-0.42,0.21-0.63-0.29-0.25-0.5s5.2-3.31,6.58-8.25s-0.46-10.26-0.71-11.14s-1.89-4.57-1.89-4.57s-4.94,0.92-5.24,0.96
		c-0.29,0.04-0.46,0.08-0.42-0.71C72.62,41.06,73.5,28.2,73.5,28.2z"/>
	<path class="st3" d="M37.26,56.19c0,0,1.05-7.29,1.13-7.83c0.08-0.54,0.5-0.21,0.75,0.13s16.3,17.68,16.63,18.06
		s0.25,0.67-0.21,0.88c-0.46,0.21-20.07,7.92-20.4,8.04c-0.34,0.13-0.42-0.21-0.38-0.92s1.13-7.71,1.17-8.04
		c0,0-9.09-3.06-13.95-8.25s-8.42-10.64-8.3-19.44c0.08-6.03,1.93-10.47,2.26-11.06s0.67-0.25,0.67,0.34s-1.34,9.72,8.3,19.86
		C29.76,53.01,37.26,56.19,37.26,56.19z"/>
	<path class="st3" d="M23.58,14.29c-0.06,0.57-0.38,1.19,0.38,1.19s16.28,0.94,18.67,1.07c0,0,0.82-0.06,0.44-0.44
		c-0.38-0.38-4.27-4.21-5.28-4.84c0,0,3.02-1.89,7.6-1.89s10.68,1.95,16.03,5.72c0.25,0.19,0.82,0.25,0.44-0.19
		c-0.38-0.44-5.09-5.15-9.24-7.67s-8.36-4.03-14.27-3.96c-5.22,0.06-7.48,1.89-7.48,1.89s-4.21-4.02-4.59-4.34s-0.82-0.38-0.88,0.13
		S23.58,14.29,23.58,14.29z"/>
</g>
</svg>
