<?xml version="1.0" encoding="utf-8"?>
<!-- Generator: Adobe Illustrator 23.1.0, SVG Export Plug-In . SVG Version: 6.00 Build 0)  -->
<svg version="1.1" id="Слой_7" xmlns="http://www.w3.org/2000/svg" xmlns:xlink="http://www.w3.org/1999/xlink" x="0px" y="0px"
	 viewBox="0 0 296 140" style="enable-background:new 0 0 296 140;" xml:space="preserve">
<style type="text/css">
	.st0{fill:#FFFFFF;}
</style>
<g>
	<g>
		<g>
			<path class="st0" d="M33.9,37.9H22.4c-0.8,0-1.5-0.7-1.5-1.5V24.9c0-0.8,0.7-1.5,1.5-1.5h11.5c0.8,0,1.5,0.7,1.5,1.5v11.5
				C35.4,37.2,34.7,37.9,33.9,37.9z"/>
			<path class="st0" d="M105.9,70.3H94.4c-0.8,0-1.5-0.7-1.5-1.5V57.2c0-0.8,0.7-1.5,1.5-1.5h11.5c0.8,0,1.5,0.7,1.5,1.5v11.5
				C107.5,69.6,106.8,70.3,105.9,70.3z M105.9,119.1H94.4c-0.8,0-1.5-0.7-1.5-1.5V106c0-0.8,0.7-1.5,1.5-1.5h11.5
				c0.8,0,1.5,0.7,1.5,1.5v11.6C107.5,118.4,106.8,119.1,105.9,119.1z"/>
		</g>
	</g>
	<g>
		<path class="st0" d="M21.2,119.1V47.7h14v71.5H21.2z"/>
		<path class="st0" d="M60.2,49.3c3.5,0,6.4,1.2,8.5,3.5V23.2h14v95.9H71v-5.3c-2.2,4.5-5.7,6.7-10.7,6.7H58
			c-8.6,0-12.9-6.4-12.9-19.3V68.6c0-12.9,4.3-19.3,12.9-19.3H60.2z M68.8,103.6V66.2c0-0.8-0.2-1.5-0.6-2c-0.4-0.6-0.9-0.9-1.4-0.9
			h-5.7c-0.6,0-1,0.3-1.4,0.9c-0.4,0.6-0.6,1.3-0.6,2v37.4c0,0.8,0.2,1.5,0.6,2.1c0.4,0.6,0.9,0.9,1.4,0.9h5.7c0.6,0,1-0.3,1.4-0.9
			C68.6,105.1,68.8,104.4,68.8,103.6z"/>
		<path class="st0" d="M144.3,103.6V89h13.9v12.3c0,12.9-4.3,19.3-12.9,19.3h-13.1c-8.6,0-12.9-6.4-12.9-19.3V42.7
			c0-12.9,4.3-19.3,12.9-19.3h13.1c8.6,0,12.9,6.4,12.9,19.3v8.9h-13.9V40.2c0-0.8-0.2-1.5-0.6-2c-0.4-0.6-0.9-0.9-1.4-0.9h-6.6
			c-0.6,0-1,0.3-1.4,0.9c-0.4,0.6-0.6,1.3-0.6,2v63.4c0,0.8,0.2,1.5,0.6,2.1c0.4,0.6,0.8,0.9,1.4,0.9h6.6c0.6,0,1-0.3,1.4-0.9
			C144.1,105.1,144.3,104.4,144.3,103.6z"/>
		<path class="st0" d="M181.5,81.9v37.2h-14.6V23.2h25.9c8.6,0,12.9,6.4,12.9,19.3v13.8c0,7.8-2,12.8-5.9,14.9
			c3.5,1.8,5.2,5.8,5.2,12v35.9h-14.6v-31c0-2-0.7-6.2-2-6.2H181.5z M181.5,37.1v30.5h7.7c0.6,0,1-0.3,1.4-0.9
			c0.4-0.6,0.6-1.3,0.6-2V40c0-0.8-0.2-1.5-0.6-2.1c-0.4-0.6-0.9-0.9-1.4-0.9H181.5z"/>
		<path class="st0" d="M229.7,119.1h-14.6V42.6c0-12.9,4.3-19.3,12.9-19.3h7.7c5.1,0,8.7,2.3,10.8,7c2-4.7,5.6-7,10.8-7h7.7
			c8.6,0,12.9,6.4,12.9,19.3v76.5h-14.6V40.9c0-0.8-0.2-1.5-0.6-2c-0.4-0.6-0.9-0.9-1.4-0.9h-5.6c-0.6,0-1,0.3-1.4,0.9
			c-0.4,0.6-0.6,1.3-0.6,2v78.3h-14.6V40.9c0-0.8-0.2-1.5-0.6-2c-0.4-0.6-0.9-0.9-1.4-0.9h-5.6c-0.6,0-1,0.3-1.4,0.9
			c-0.4,0.6-0.6,1.3-0.6,2V119.1z"/>
	</g>
</g>
</svg>
