<?xml version="1.0" encoding="utf-8"?>
<!-- Generator: Adobe Illustrator 23.1.0, SVG Export Plug-In . SVG Version: 6.00 Build 0)  -->
<svg version="1.1" id="Слой_3" xmlns="http://www.w3.org/2000/svg" xmlns:xlink="http://www.w3.org/1999/xlink" x="0px" y="0px"
	 viewBox="0 0 296 140" style="enable-background:new 0 0 296 140;" xml:space="preserve">
<style type="text/css">
	.st0{fill:#1D1D1B;}
</style>
<g>
	<g>
		<path class="st0" d="M40.1,114.6c-1.2,0-2.2-0.2-3-0.6s-1.4-1.2-1.8-2.2c-0.4-1-0.6-2.4-0.6-4.3s0.2-3.2,0.5-4.3
			c0.4-1,0.9-1.8,1.7-2.2c0.8-0.4,1.7-0.6,2.8-0.6c0.5,0,1.1,0.1,1.8,0.2s1.1,0.2,1.5,0.4v1.1h-2.7c-0.7,0-1.3,0.2-1.7,0.4
			c-0.5,0.3-0.8,0.8-1.1,1.6s-0.3,1.9-0.3,3.4c0,1.4,0.1,2.6,0.4,3.4s0.6,1.3,1.1,1.6c0.5,0.3,1.2,0.4,1.9,0.4h2.7v1.1
			c-0.4,0.1-0.9,0.3-1.5,0.4C41.3,114.5,40.7,114.6,40.1,114.6z"/>
		<path class="st0" d="M49.8,114.6c-1.1,0-2-0.2-2.8-0.7c-0.8-0.4-1.3-1.2-1.7-2.2s-0.6-2.4-0.6-4.2c0-1.8,0.2-3.2,0.6-4.2
			c0.4-1,1-1.8,1.7-2.2c0.8-0.4,1.7-0.7,2.8-0.7s2,0.2,2.8,0.7c0.8,0.4,1.3,1.2,1.7,2.2s0.6,2.4,0.6,4.2c0,1.8-0.2,3.2-0.6,4.2
			s-1,1.8-1.7,2.2C51.8,114.4,50.9,114.6,49.8,114.6z M49.8,113.1c0.5,0,0.9-0.2,1.3-0.5c0.4-0.3,0.7-0.9,1-1.7
			c0.3-0.8,0.4-1.9,0.4-3.4s-0.1-2.6-0.4-3.4c-0.3-0.8-0.6-1.4-1-1.7c-0.4-0.3-0.8-0.5-1.3-0.5s-0.9,0.2-1.3,0.5
			c-0.4,0.3-0.7,0.9-1,1.7c-0.3,0.8-0.4,1.9-0.4,3.4s0.1,2.6,0.4,3.4c0.3,0.8,0.6,1.4,1,1.7C48.9,112.9,49.4,113.1,49.8,113.1z"/>
		<path class="st0" d="M57.9,114.3v-13.6h2l0.1,0.8h0.1c0.3-0.3,0.8-0.6,1.3-0.8s1-0.3,1.6-0.3c0.9,0,1.6,0.1,2.3,0.3
			c0.6,0.2,1.1,0.6,1.5,1.2s0.5,1.4,0.5,2.5v9.8h-2.4v-9.8c0-1-0.3-1.6-0.7-1.9c-0.5-0.3-1.1-0.5-1.8-0.5c-0.3,0-0.7,0.1-1.1,0.2
			s-0.7,0.2-0.8,0.4v11.7C60.5,114.3,57.9,114.3,57.9,114.3z"/>
		<path class="st0" d="M75,114.6c-0.7,0-1.4-0.1-1.9-0.4s-1-0.7-1.4-1.4s-0.5-1.6-0.5-2.9v-7.2h-1.6v-1.8h1.6v-3.3h2.4v3.3h3.8v1.2
			c-0.4,0.1-0.9,0.3-1.5,0.4s-1.2,0.2-1.7,0.2h-0.6v7.2c0,0.8,0.1,1.4,0.3,1.9c0.2,0.4,0.4,0.7,0.8,0.9c0.3,0.2,0.6,0.3,0.9,0.3H78
			v1.1c-0.2,0.1-0.5,0.2-0.9,0.3c-0.4,0.1-0.8,0.2-1.1,0.2S75.3,114.6,75,114.6z"/>
		<path class="st0" d="M83.5,114.6c-0.8,0-1.5-0.1-2.1-0.3c-0.6-0.2-1.1-0.7-1.4-1.3c-0.3-0.6-0.5-1.5-0.5-2.7s0.2-2,0.5-2.6
			s0.8-1,1.4-1.3c0.6-0.2,1.3-0.3,2.1-0.3c0.4,0,0.9,0,1.4,0.1s0.9,0.1,1.3,0.2V105c0-1.2-0.3-2-0.8-2.4s-1.3-0.6-2.2-0.6h-2.7v-1
			c0.4-0.2,0.9-0.3,1.5-0.4s1.2-0.2,1.7-0.2c1.1,0,2,0.1,2.7,0.4s1.3,0.7,1.6,1.4s0.6,1.6,0.6,2.9v9.3h-2l-0.1-0.8h-0.1
			c-0.3,0.3-0.8,0.6-1.3,0.8S84,114.6,83.5,114.6z M84.3,112.9c0.3,0,0.7-0.1,1.1-0.2s0.7-0.2,0.8-0.4v-4.8h-1.9
			c-0.4,0-0.9,0.1-1.2,0.2s-0.7,0.4-0.9,0.8c-0.2,0.4-0.3,0.9-0.3,1.6s0.1,1.3,0.3,1.7s0.5,0.7,0.9,0.8
			C83.4,112.9,83.8,112.9,84.3,112.9z"/>
		<path class="st0" d="M97,114.6c-1.2,0-2.2-0.2-3-0.6s-1.4-1.2-1.8-2.2s-0.6-2.4-0.6-4.3s0.2-3.2,0.6-4.3c0.4-1,0.9-1.8,1.7-2.2
			c0.8-0.4,1.7-0.6,2.8-0.6c0.6,0,1.1,0.1,1.8,0.2s1.1,0.2,1.5,0.4v1.1h-2.7c-0.7,0-1.3,0.2-1.7,0.4c-0.5,0.3-0.8,0.8-1.1,1.6
			s-0.3,1.9-0.3,3.4c0,1.4,0.1,2.6,0.4,3.4s0.6,1.3,1.1,1.6c0.5,0.3,1.2,0.4,1.9,0.4h2.7v1.1c-0.4,0.1-0.9,0.3-1.5,0.4
			C98.1,114.5,97.5,114.6,97,114.6z"/>
		<path class="st0" d="M106.7,114.6c-0.7,0-1.4-0.1-1.9-0.4s-1-0.7-1.4-1.4s-0.5-1.6-0.5-2.9v-7.2h-1.6v-1.8h1.6v-3.3h2.4v3.3h3.8
			v1.2c-0.4,0.1-0.9,0.3-1.5,0.4s-1.2,0.2-1.7,0.2h-0.6v7.2c0,0.8,0.1,1.4,0.3,1.9c0.2,0.4,0.4,0.7,0.8,0.9c0.3,0.2,0.6,0.3,0.9,0.3
			h2.4v1.1c-0.2,0.1-0.5,0.2-0.9,0.3c-0.4,0.1-0.8,0.2-1.1,0.2S106.9,114.6,106.7,114.6z"/>
		<path class="st0" d="M114.4,114.6c-0.5,0-1.1-0.1-1.7-0.2s-1.1-0.2-1.5-0.4v-1.1h2.7c1.2,0,2.1-0.2,2.7-0.5s0.8-0.9,0.8-1.7
			c0-0.6-0.2-1-0.5-1.3s-0.7-0.6-1.2-0.8c-0.5-0.2-1-0.4-1.6-0.7s-1.1-0.5-1.6-0.8s-0.9-0.7-1.2-1.2c-0.3-0.5-0.5-1.2-0.5-2
			c0-1.4,0.4-2.3,1.2-2.8s2-0.8,3.7-0.8c0.5,0,1.1,0.1,1.7,0.2s1.1,0.2,1.5,0.4v1.1h-2.7c-0.9,0-1.7,0.2-2.2,0.4s-0.8,0.8-0.8,1.5
			c0,0.6,0.2,1,0.5,1.3s0.7,0.6,1.2,0.8c0.5,0.2,1,0.4,1.6,0.7c0.6,0.2,1.1,0.5,1.6,0.8s0.9,0.7,1.2,1.2s0.5,1.2,0.5,2
			c0,1-0.2,1.8-0.6,2.3s-1,0.9-1.8,1.2C116.7,114.5,115.7,114.6,114.4,114.6z"/>
		<path class="st0" d="M133,114.6c-1.4,0-2.4-0.4-3.2-1.3s-1.2-2.2-1.2-3.9c0-0.8,0.1-1.6,0.2-2.4s0.2-1.3,0.4-1.7h1.9v4.1
			c0,0.9,0.1,1.7,0.3,2.2s0.4,0.8,0.8,1c0.3,0.2,0.6,0.3,0.9,0.3c0.4,0,0.7-0.1,0.9-0.2s0.6-0.4,0.8-0.8c0.3-0.4,0.6-1,0.9-1.8
			c-1-1.4-1.8-2.6-2.4-3.6c-0.6-1-1.1-1.9-1.5-2.6s-0.6-1.4-0.7-2s-0.2-1.2-0.2-1.8c0-1.6,0.4-2.9,1.2-3.7s1.9-1.2,3.4-1.2
			c0.8,0,1.6,0.1,2.4,0.2c0.8,0.1,1.3,0.2,1.7,0.4V97h-3.5c-0.8,0-1.5,0.3-2,0.8s-0.8,1.3-0.8,2.3c0,0.4,0,0.9,0.1,1.3
			s0.2,1,0.4,1.5c0.2,0.6,0.5,1.2,1,2c0.4,0.8,1,1.6,1.8,2.7l1.5-3.7h2.4l-2.4,6l3.3,4.6h-2.7l-1.5-2.2c-0.3,0.6-0.6,1-1,1.4
			s-0.8,0.6-1.3,0.8S133.8,114.6,133,114.6z"/>
		<path class="st0" d="M155.1,114.6c-1.2,0-2.2-0.2-3-0.6s-1.4-1.2-1.8-2.2c-0.4-1-0.6-2.4-0.6-4.3s0.2-3.2,0.6-4.3
			c0.4-1,0.9-1.8,1.7-2.2c0.8-0.4,1.7-0.6,2.8-0.6c0.6,0,1.1,0.1,1.8,0.2s1.1,0.2,1.5,0.4v1.1h-2.7c-0.7,0-1.3,0.2-1.7,0.4
			c-0.5,0.3-0.8,0.8-1.1,1.6s-0.4,1.9-0.4,3.4c0,1.4,0.1,2.6,0.4,3.4s0.6,1.3,1.1,1.6c0.5,0.3,1.1,0.4,1.9,0.4h2.7v1.1
			c-0.4,0.1-0.9,0.3-1.5,0.4S155.6,114.6,155.1,114.6z"/>
		<path class="st0" d="M164.7,114.6c-1.1,0-2-0.2-2.8-0.7c-0.8-0.4-1.3-1.2-1.7-2.2s-0.6-2.4-0.6-4.2c0-1.8,0.2-3.2,0.6-4.2
			c0.4-1,1-1.8,1.7-2.2c0.8-0.4,1.7-0.7,2.8-0.7s2,0.2,2.8,0.7c0.8,0.4,1.3,1.2,1.7,2.2s0.6,2.4,0.6,4.2c0,1.8-0.2,3.2-0.6,4.2
			s-0.9,1.8-1.7,2.2C166.8,114.4,165.8,114.6,164.7,114.6z M164.7,113.1c0.4,0,0.9-0.2,1.3-0.5c0.4-0.3,0.7-0.9,0.9-1.7
			c0.3-0.8,0.4-1.9,0.4-3.4s-0.1-2.6-0.4-3.4c-0.3-0.8-0.6-1.4-0.9-1.7c-0.4-0.3-0.8-0.5-1.3-0.5c-0.4,0-0.9,0.2-1.3,0.5
			c-0.4,0.3-0.7,0.9-0.9,1.7c-0.3,0.8-0.4,1.9-0.4,3.4s0.1,2.6,0.4,3.4c0.3,0.8,0.6,1.4,0.9,1.7
			C163.9,112.9,164.3,113.1,164.7,113.1z"/>
		<path class="st0" d="M172.8,114.3v-13.6h2l0.1,0.8h0.1c0.4-0.3,0.7-0.6,1.2-0.8c0.4-0.2,0.9-0.3,1.6-0.3c0.6,0,1.2,0.1,1.7,0.3
			c0.5,0.2,1,0.5,1.3,0.9c0.4-0.4,1-0.7,1.7-0.9c0.6-0.2,1.2-0.3,1.7-0.3c0.7,0,1.4,0.1,1.9,0.3c0.6,0.2,1,0.6,1.4,1.2
			c0.3,0.6,0.5,1.4,0.5,2.5v9.8h-2.4v-9.8c0-0.6-0.1-1.1-0.3-1.5c-0.2-0.3-0.5-0.6-0.8-0.8c-0.3-0.2-0.7-0.2-1.1-0.2
			c-0.4,0-0.8,0.1-1.2,0.2s-0.7,0.2-0.9,0.4c0.1,0.2,0.1,0.5,0.2,0.8s0.1,0.7,0.1,1.1v9.8h-2.4v-9.8c0-0.6-0.1-1.1-0.3-1.5
			c-0.2-0.3-0.5-0.6-0.8-0.8c-0.3-0.2-0.7-0.2-1.1-0.2c-0.4,0-0.7,0.1-1,0.2s-0.6,0.2-0.8,0.4v11.7L172.8,114.3L172.8,114.3z"/>
		<path class="st0" d="M191.6,119.8v-19.1h2l0.1,0.8h0.1c0.4-0.3,0.8-0.6,1.3-0.8s1-0.3,1.6-0.3c1,0,1.8,0.2,2.4,0.6
			s1.2,1.2,1.5,2.2c0.4,1,0.5,2.4,0.5,4.3s-0.2,3.2-0.5,4.3s-0.9,1.8-1.5,2.2c-0.7,0.4-1.5,0.6-2.4,0.6c-0.6,0-1-0.1-1.5-0.2
			c-0.4-0.1-0.9-0.3-1.3-0.5v5.9H191.6L191.6,119.8z M196,112.9c0.6,0,1.1-0.2,1.5-0.4c0.4-0.3,0.8-0.8,1-1.6s0.3-1.9,0.3-3.4
			c0-1.4-0.1-2.6-0.3-3.4s-0.6-1.3-1-1.6s-0.9-0.4-1.5-0.4c-0.4,0-0.7,0.1-1.1,0.2s-0.6,0.2-0.9,0.4v9.8c0.2,0.1,0.5,0.3,0.9,0.4
			C195.3,112.9,195.6,112.9,196,112.9z"/>
		<path class="st0" d="M207.8,114.6c-0.8,0-1.5-0.1-2.1-0.3c-0.6-0.2-1.1-0.7-1.4-1.3c-0.4-0.6-0.5-1.5-0.5-2.7s0.2-2,0.5-2.6
			s0.8-1,1.4-1.3c0.6-0.2,1.3-0.3,2.1-0.3c0.4,0,0.9,0,1.4,0.1s0.9,0.1,1.4,0.2V105c0-1.2-0.3-2-0.8-2.4s-1.3-0.6-2.2-0.6h-2.7v-1
			c0.4-0.2,0.9-0.3,1.5-0.4s1.2-0.2,1.7-0.2c1.1,0,2,0.1,2.7,0.4s1.3,0.7,1.6,1.4s0.6,1.6,0.6,2.9v9.3h-2l-0.1-0.8h-0.1
			c-0.4,0.3-0.8,0.6-1.3,0.8S208.4,114.6,207.8,114.6z M208.6,112.9c0.4,0,0.7-0.1,1.1-0.2s0.6-0.2,0.9-0.4v-4.8h-1.9
			c-0.4,0-0.9,0.1-1.2,0.2s-0.7,0.4-0.9,0.8s-0.3,0.9-0.3,1.6s0.1,1.3,0.3,1.7s0.5,0.7,0.9,0.8C207.8,112.9,208.2,112.9,208.6,112.9
			z"/>
		<path class="st0" d="M216.5,114.3v-13.6h2l0.1,0.8h0.1c0.4-0.3,0.8-0.6,1.3-0.8s1-0.3,1.6-0.3c0.9,0,1.6,0.1,2.3,0.3
			c0.6,0.2,1.1,0.6,1.5,1.2s0.5,1.4,0.5,2.5v9.8h-2.4v-9.8c0-1-0.3-1.6-0.7-1.9s-1.1-0.5-1.9-0.5c-0.4,0-0.7,0.1-1.1,0.2
			s-0.6,0.2-0.9,0.4v11.7C218.9,114.3,216.5,114.3,216.5,114.3z"/>
		<path class="st0" d="M229.6,98.8v-3h2.4v3H229.6z M229.6,114.3v-13.6h2.4v13.6H229.6z"/>
		<path class="st0" d="M240.9,114.6c-1.4,0-2.5-0.2-3.3-0.6s-1.4-1.2-1.8-2.2s-0.6-2.4-0.6-4.3s0.2-3.2,0.6-4.3
			c0.4-1,0.9-1.8,1.6-2.2s1.6-0.6,2.6-0.6c1.1,0,1.9,0.2,2.6,0.6c0.7,0.4,1.2,1.2,1.6,2.2c0.4,1,0.5,2.4,0.5,4.3v0.8h-7.1
			c0,1.8,0.3,3,0.9,3.6s1.6,1,2.9,1h2.7v1.1c-0.4,0.1-0.9,0.3-1.5,0.4C242.1,114.5,241.5,114.6,240.9,114.6z M237.7,106.7h4.6
			c0-1.2-0.1-2.2-0.3-2.9s-0.5-1.2-0.8-1.5c-0.4-0.3-0.7-0.4-1.1-0.4c-0.4,0-0.8,0.1-1.1,0.4s-0.6,0.8-0.9,1.5
			C237.8,104.5,237.7,105.4,237.7,106.7z"/>
		<path class="st0" d="M250.4,114.6c-0.5,0-1.1-0.1-1.7-0.2s-1.1-0.2-1.5-0.4v-1.1h2.7c1.2,0,2.1-0.2,2.7-0.5s0.9-0.9,0.9-1.7
			c0-0.6-0.2-1-0.5-1.3s-0.7-0.6-1.2-0.8s-1-0.4-1.6-0.7s-1.1-0.5-1.6-0.8s-0.9-0.7-1.2-1.2s-0.5-1.2-0.5-2c0-1.4,0.4-2.3,1.2-2.8
			s2-0.8,3.7-0.8c0.5,0,1.1,0.1,1.8,0.2s1.1,0.2,1.5,0.4v1.1h-2.7c-0.9,0-1.7,0.2-2.2,0.4c-0.5,0.3-0.8,0.8-0.8,1.5
			c0,0.6,0.1,1,0.5,1.3c0.3,0.3,0.7,0.6,1.2,0.8c0.5,0.2,1,0.4,1.6,0.7c0.6,0.2,1.1,0.5,1.6,0.8s0.9,0.7,1.2,1.2s0.5,1.2,0.5,2
			c0,1-0.2,1.8-0.6,2.3s-1,0.9-1.8,1.2C252.7,114.5,251.6,114.6,250.4,114.6z"/>
	</g>
</g>
<g>
	<g>
		<g>
			<path class="st0" d="M44.5,34.7h-7.6c-0.6,0-1-0.5-1-1v-7.6c0-0.6,0.5-1,1-1h7.6c0.6,0,1,0.5,1,1v7.6
				C45.5,34.2,45,34.7,44.5,34.7z"/>
			<path class="st0" d="M92,56.1h-7.6c-0.6,0-1-0.5-1-1v-7.6c0-0.6,0.5-1,1-1H92c0.6,0,1,0.5,1,1V55C93,55.6,92.6,56.1,92,56.1z
				 M92,88.3h-7.6c-0.6,0-1-0.5-1-1v-7.7c0-0.6,0.5-1,1-1H92c0.6,0,1,0.5,1,1v7.7C93,87.9,92.6,88.3,92,88.3z"/>
		</g>
	</g>
	<g>
		<path class="st0" d="M36,88.3V41.1h9.2v47.2H36z"/>
		<path class="st0" d="M61.8,42.2c2.3,0,4.2,0.8,5.6,2.3V25h9.2v63.3h-7.8v-3.5c-1.4,3-3.8,4.4-7.1,4.4h-1.4
			c-5.7,0-8.5-4.3-8.5-12.8V54.9c0-8.5,2.8-12.8,8.5-12.8L61.8,42.2L61.8,42.2z M67.5,78.1V53.4c0-0.5-0.1-1-0.4-1.4
			s-0.6-0.6-0.9-0.6h-3.8c-0.4,0-0.7,0.2-0.9,0.6c-0.3,0.4-0.4,0.8-0.4,1.4v24.7c0,0.5,0.1,1,0.4,1.4c0.3,0.4,0.6,0.6,0.9,0.6h3.8
			c0.4,0,0.7-0.2,0.9-0.6C67.4,79,67.5,78.6,67.5,78.1z"/>
		<path class="st0" d="M117.4,78.1v-9.7h9.2v8.1c0,8.5-2.8,12.8-8.5,12.8h-8.7c-5.7,0-8.5-4.3-8.5-12.8V37.8
			c0-8.5,2.8-12.8,8.5-12.8h8.7c5.7,0,8.5,4.3,8.5,12.8v5.9h-9.2v-7.5c0-0.5-0.1-1-0.4-1.4s-0.6-0.6-0.9-0.6h-4.3
			c-0.4,0-0.7,0.2-0.9,0.6c-0.3,0.4-0.4,0.8-0.4,1.4v41.9c0,0.5,0.1,1,0.4,1.4s0.6,0.6,0.9,0.6h4.3c0.4,0,0.7-0.2,0.9-0.6
			C117.2,79,117.4,78.6,117.4,78.1z"/>
		<path class="st0" d="M141.9,63.7v24.6h-9.6V25h17.1c5.7,0,8.5,4.3,8.5,12.8v9.1c0,5.2-1.3,8.4-3.9,9.9c2.3,1.2,3.4,3.8,3.4,7.9
			v23.7h-9.6V67.9c0-1.3-0.4-4.1-1.3-4.1h-4.6V63.7z M141.9,34.1v20.1h5.1c0.4,0,0.7-0.2,0.9-0.6c0.3-0.4,0.4-0.8,0.4-1.4V36.1
			c0-0.5-0.1-1-0.4-1.4c-0.3-0.4-0.6-0.6-0.9-0.6H141.9z"/>
		<path class="st0" d="M173.7,88.3h-9.6V37.8c0-8.5,2.8-12.8,8.5-12.8h5.1c3.3,0,5.7,1.5,7.2,4.6c1.3-3.1,3.7-4.6,7.2-4.6h5.1
			c5.7,0,8.5,4.3,8.5,12.8v50.5H196V36.6c0-0.5-0.1-1-0.4-1.4c-0.3-0.4-0.6-0.6-0.9-0.6H191c-0.4,0-0.7,0.2-0.9,0.6
			c-0.3,0.4-0.4,0.8-0.4,1.4v51.7h-9.6V36.6c0-0.5-0.1-1-0.4-1.4c-0.3-0.4-0.6-0.6-0.9-0.6H175c-0.4,0-0.7,0.2-0.9,0.6
			c-0.3,0.4-0.4,0.8-0.4,1.4L173.7,88.3L173.7,88.3z"/>
	</g>
</g>
</svg>
